
<svg xmlns="http://www.w3.org/2000/svg" viewBox="0 0 55 55">
	<style type="text/css">
		.st0{fill:url(#SVGID_1_);filter:url(#defapp-filter-1);}
		.st1{fill:#FFFFFF;}
	</style>
	<linearGradient id="SVGID_1_" gradientUnits="userSpaceOnUse" x1="27.5217" y1="2.214" x2="27.5217" y2="50.8038">
		<stop  offset="0" style="stop-color:#81D7BC"/>
		<stop  offset="0.1888" style="stop-color:#4AC685"/>
		<stop  offset="0.506" style="stop-color:#2FBE6E"/>
		<stop  offset="0.7631" style="stop-color:#00AF26"/>
		<stop  offset="1" style="stop-color:#00AF29"/>
	</linearGradient>
	<filter filterUnits="objectBoundingBox" id="defapp-filter-1">
		<feOffset dx="0" dy="0.75" in="SourceAlpha" result="defappShadowOffsetOuter1"></feOffset>
		<feGaussianBlur stdDeviation="1.25" in="defappShadowOffsetOuter1" result="defappShadowBlurOuter1"></feGaussianBlur>
		<feColorMatrix values="0 0 0 0 0   0 0 0 0 0   0 0 0 0 0  0 0 0 .5 0" type="matrix" in="defappShadowBlurOuter1" result="defappShadowMatrixOuter1"></feColorMatrix>
		<feMerge>
			<feMergeNode in="defappShadowMatrixOuter1"/>
			<feMergeNode in="SourceGraphic"/>
		</feMerge>
	</filter>
	<path class="st0" d="M18,50.8c-1.1,0-2.2-0.1-3.3-0.3c-1-0.2-2-0.4-2.8-0.6c-0.8-0.2-1.5-0.4-2-0.6c-0.2-0.1-0.4-0.1-0.5-0.2
		c-0.1,0.1-0.2,0.1-0.3,0.2l-0.3,0.2l-1.9-0.6l2.7-10.1l2.2,0.7l0,0.6c0,0.8,0.3,1.4,1,1.8c0.8,0.5,1.5,0.7,2.4,0.7
		c1.2,0,2.1-0.2,2.9-0.6c0.7-0.4,1.1-1.1,1.3-2.2l3.1-17.1h-7V16h8.2c0.2-1.4,0.5-2.8,0.9-4.2c0.5-1.7,1.1-3.3,2-4.7
		c0.9-1.4,2.1-2.6,3.5-3.5c1.5-0.9,3.3-1.4,5.4-1.4c1.5,0,2.9,0.1,4.1,0.3c1.2,0.2,2.2,0.4,3.1,0.7c0.9,0.3,1.5,0.5,2,0.7
		c0.3,0.1,0.5,0.2,0.7,0.2C45.5,4.1,45.5,4,45.6,4l0.3-0.3l2.2,0.5l-3,10.2L43,13.8l-0.1-0.6c-0.1-1.1-0.5-1.7-1.2-2.1
		c-0.8-0.5-1.8-0.7-2.8-0.7c-0.9,0-1.6,0.1-2,0.4c-0.4,0.2-0.8,0.6-1,1c-0.3,0.5-0.5,1.2-0.6,2.1c-0.1,0.6-0.2,1.4-0.3,2.2h8v6.7
		h-9.2l-3.8,19.2c-0.2,1.2-0.7,2.4-1.3,3.4c-0.6,1.1-1.4,2-2.4,2.8c-1,0.8-2.2,1.5-3.5,2C21.3,50.6,19.7,50.8,18,50.8z"/>
	<path class="st1" d="M35.5,3.1c1.5,0,2.8,0.1,4,0.3c1.2,0.2,2.1,0.4,3,0.7c0.8,0.3,1.5,0.5,2,0.7C44.9,5,45.3,5,45.5,5
		c0.1,0,0.3-0.1,0.4-0.2c0.1-0.1,0.2-0.2,0.3-0.3l0.8,0.2l-2.5,8.5l-0.8-0.2c-0.1-1.3-0.7-2.3-1.7-2.8c-1-0.5-2.1-0.8-3.2-0.8
		c-1,0-1.9,0.2-2.4,0.5c-0.6,0.3-1,0.8-1.4,1.4c-0.3,0.6-0.6,1.4-0.7,2.3c-0.2,0.9-0.3,2-0.5,3.2H42v5h-9l-4,19.9
		c-0.2,1.1-0.6,2.2-1.2,3.2c-0.6,1-1.3,1.9-2.2,2.6c-0.9,0.8-2,1.4-3.3,1.8c-1.3,0.4-2.7,0.7-4.4,0.7c-1.1,0-2.1-0.1-3.2-0.3
		c-1-0.2-1.9-0.4-2.7-0.6c-0.8-0.2-1.4-0.4-2-0.6c-0.5-0.2-0.8-0.3-0.9-0.3c-0.1,0-0.2,0-0.3,0.1c-0.1,0.1-0.2,0.2-0.3,0.2l-0.8-0.3
		l2.2-8.4l0.8,0.3c0,1.1,0.5,2,1.4,2.5c0.9,0.5,1.8,0.8,2.8,0.8c1.3,0,2.4-0.3,3.3-0.8c0.9-0.5,1.5-1.4,1.7-2.8l3.3-18.1h-7.2v-5
		h8.1c0.2-1.6,0.5-3.2,1-4.9c0.4-1.6,1.1-3.1,1.9-4.4c0.8-1.3,1.9-2.4,3.2-3.2C31.9,3.5,33.5,3.1,35.5,3.1 M35.5,1.3
		c-2.3,0-4.3,0.5-5.9,1.5c-1.6,1-2.8,2.2-3.8,3.8c-0.9,1.5-1.6,3.1-2.1,4.9c-0.3,1.2-0.6,2.4-0.8,3.6h-6.6h-1.7v1.8v5v1.7h1.7h5.1
		l-3,16c-0.2,1.3-0.7,1.5-0.8,1.6c-0.6,0.4-1.5,0.5-2.5,0.5c-0.7,0-1.3-0.2-1.9-0.6c-0.3-0.2-0.5-0.5-0.6-1.1l0-1.2l-1.1-0.4
		l-0.8-0.3l-1.8-0.6l-0.5,1.8l-2.2,8.4l-0.4,1.6L7.4,50l0.8,0.3l0.7,0.2l0.6-0.3c0,0,0.1,0,0.1,0c0.6,0.2,1.2,0.4,2,0.6
		c0.8,0.2,1.8,0.4,2.9,0.6c1.1,0.2,2.3,0.3,3.5,0.3c1.8,0,3.5-0.3,4.9-0.7c1.5-0.5,2.7-1.2,3.8-2.1c1.1-0.9,1.9-1.9,2.6-3.1
		c0.7-1.1,1.1-2.4,1.4-3.7l3.7-18.4H42h1.8v-1.7v-5v-1.8H42h-6.1c0.1-0.4,0.1-0.8,0.2-1.2c0.1-0.7,0.3-1.3,0.5-1.8
		c0.2-0.3,0.4-0.5,0.6-0.7c0.2-0.1,0.7-0.3,1.6-0.3c0.9,0,1.7,0.2,2.4,0.6c0.2,0.1,0.6,0.3,0.7,1.4l0.1,1.2l1.2,0.3l0.8,0.2l1.6,0.4
		l0.5-1.6l2.5-8.5l0.5-1.8l-1.8-0.4l-0.8-0.2l-0.9-0.2l-0.5,0.5c0,0-0.1,0-0.1,0c-0.5-0.2-1.2-0.4-2.1-0.7c-0.9-0.3-2-0.5-3.2-0.7
		C38.5,1.4,37.1,1.3,35.5,1.3L35.5,1.3z"/>
</svg>
