
<svg xmlns="http://www.w3.org/2000/svg" viewBox="0 0 55 55">
	<style type="text/css">
		.st0{fill:url(#SVGID_1_);stroke:#FFFFFF;stroke-width:2;stroke-miterlimit:10;filter:url(#defapp-filter-1);}
	</style>
	<linearGradient id="SVGID_1_" gradientUnits="userSpaceOnUse" x1="27.5" y1="2.4329" x2="27.5" y2="52.5671">
		<stop  offset="0" style="stop-color:#81D7BC"/>
		<stop  offset="0.1888" style="stop-color:#4AC685"/>
		<stop  offset="0.506" style="stop-color:#2FBE6E"/>
		<stop  offset="0.7631" style="stop-color:#00AF26"/>
		<stop  offset="1" style="stop-color:#00AF29"/>
	</linearGradient>
	<filter filterUnits="objectBoundingBox" id="defapp-filter-1">
		<feOffset dx="0" dy=".5" in="SourceAlpha" result="defappShadowOffsetOuter1"></feOffset>
		<feGaussianBlur stdDeviation=".5" in="defappShadowOffsetOuter1" result="defappShadowBlurOuter1"></feGaussianBlur>
		<feColorMatrix values="0 0 0 0 0   0 0 0 0 0   0 0 0 0 0  0 0 0 0.5 0" type="matrix" in="defappShadowBlurOuter1" result="defappShadowMatrixOuter1"></feColorMatrix>
		<feMerge>
			<feMergeNode in="defappShadowMatrixOuter1"/>
			<feMergeNode in="SourceGraphic"/>
		</feMerge>
	</filter>
	<path class="st0" d="M27.3,8.9L29.6,9c0-2.1,0.7-3.7,2.1-4.8C33,3,34.9,2.4,37.2,2.4c1.9,0,3.5,0.5,4.8,1.5c1.3,1,1.9,2.2,1.9,3.7
		c0,1-0.3,1.9-1,2.5c-0.7,0.7-1.5,1-2.5,1c-1.1,0-2-0.4-2.5-1.3l-0.6-1c-0.2-0.3-0.4-0.4-0.8-0.4c-0.8,0-1.3,0.6-1.3,1.8
		c0,0.3,0,0.5,0.1,0.6c3.9,1.4,5.8,4.1,5.8,8.2c0,3.1-1.2,5.6-3.6,7.5c-2.4,1.9-5.6,2.8-9.5,2.8c-2.1,0-4.3-0.5-6.5-1.4l-0.3-0.1
		c-0.6,0.5-0.9,1-0.9,1.6c0,1.4,1,2.2,2.9,2.5c0.6,0.1,2.1,0.2,4.4,0.2h0.7l3.9-0.1c3.9,0,6.9,0.7,9,2.2c2.1,1.5,3.1,3.7,3.1,6.5
		c0,3.6-1.6,6.4-4.7,8.5c-3.1,2.1-7.4,3.1-12.8,3.1c-4.8,0-8.7-0.9-11.7-2.7c-2.9-1.8-4.4-4.2-4.4-7.2c0-3.2,2-5.5,6.1-6.7
		c-3.2-0.6-4.8-2.5-4.8-5.5c0-1.6,0.4-2.8,1.1-3.7c0.7-0.9,2-1.8,3.8-2.6c-1.5-1.6-2.2-3.4-2.2-5.3c0-2.8,1.2-5.2,3.7-7.1
		C20.7,9.8,23.8,8.9,27.3,8.9z M26.6,39.3c-1,0-2.2-0.1-3.6-0.2c-1.8,0.7-2.7,1.7-2.7,2.8c0,2.1,2.4,3.2,7.1,3.2
		c4.8,0,7.2-1.1,7.2-3.2c0-1.7-1.6-2.6-4.7-2.6c-0.1,0-0.7,0-1.6,0.1H26.6z M27.8,15.2c-1.1,0-2.1,0.4-2.8,1.1
		c-0.7,0.7-1.1,1.7-1.1,2.8c0,1.1,0.4,2.1,1.1,2.8c0.7,0.8,1.7,1.2,2.8,1.2c1.1,0,2.1-0.4,2.8-1.2c0.7-0.8,1.1-1.7,1.1-2.8
		c0-1.1-0.4-2.1-1.1-2.8C29.9,15.6,29,15.2,27.8,15.2z"/>
</svg>
