<svg xmlns="http://www.w3.org/2000/svg" width="0" height="0">

	<svg id="icon-undo" viewBox="0 0 13 13">
		<style type="text/css">
			.st0{fill:#333;}
		</style>
		<path class="st0" d="M6.5,1.9C5,1.9,3.6,2.5,2.6,3.5L1,1.9V6h4.1L3.6,4.5c0.7-0.7,1.8-1.2,2.9-1.2c2.3,0,4.1,1.8,4.1,4.1c0,1.2-0.5,2.3-1.4,3.1 l0.9,1c1.1-1,1.9-2.5,1.9-4.1C12,4.3,9.5,1.9,6.5,1.9z"/>
	</svg>

	<svg id="icon-redo" viewBox="0 0 13 13">
		<style type="text/css">
			.st0{fill:#333;}
		</style>
		<path class="st0" d="M1,7.4c0,1.6,0.7,3.1,1.8,4.1l0.9-1C2.9,9.7,2.4,8.6,2.4,7.4c0-2.3,1.8-4.1,4.1-4.1c1.1,0,2.2,0.5,2.9,1.2L7.9,6H12V1.9 l-1.6,1.6c-1-1-2.4-1.6-3.9-1.6C3.5,1.9,1,4.4,1,7.4z"/>
	</svg>

	<svg id="icon-sidebar" viewBox="0 0 13 13">
		<style type="text/css">
			.st0{fill:#333;}
		</style>
		<path class="st0" d="M11,2H6H5H2H1v1v7v1h1h3h1h5h1v-1V3V2H11z M2,10V3h3v7H2z M11,10H6V3h5V10z"/>
		<rect x="3" y="4" class="st0" width="1" height="1"/>
		<rect x="3" y="6" class="st0" width="1" height="1"/>
	</svg>

	<svg id="icon-format" viewBox="0 0 13 13">
		<style type="text/css">
			.st0{fill:#333;}
		</style>
		<path class="st0" d="M5.8,8.9C6.7,9.3,7.1,10,8.2,8.9c-1-1-4.1-4.1-4.1-4.1c-0.8,0.8-0.6,1.4,0,2.3C4.7,7.9,3,8.8,2.7,9 C2.3,9.2,1,10,1,10.8C1,11.4,1.7,12,2.2,12c0.7-0.1,1.4-1,1.8-1.7C4.5,9.6,5.1,8.5,5.8,8.9z M1.9,11.1c-0.2-0.2-0.2-0.4,0-0.6 c0.2-0.2,0.4-0.2,0.6,0c0.2,0.2,0.2,0.4,0,0.6C2.3,11.3,2.1,11.3,1.9,11.1z"/>
		<path class="st0" d="M4.8,4c0.1-0.1,2.5-2.7,2.6-2.9C7.5,1,7.9,0.9,8.1,1.1c0.2,0.1,0.4,0.3,0.5,0.4s0,0.2,0,0.3 C8.5,1.8,6.8,3.9,6.8,3.9S9,2.2,9.1,2.2c0.1-0.1,0.4-0.1,0.5,0c0.1,0.1,2.3,2.8,2.3,3c0.1,0.2,0,0.6-0.2,0.7C11.6,6.1,9.1,8.2,9,8.3 c-0.1,0.1-0.3,0.2-0.5,0C8.3,8.1,4.9,4.7,4.8,4.6C4.7,4.4,4.7,4.2,4.8,4z"/>
	</svg>


	<svg id="icon-move" viewBox="0 0 13 13">
		<style type="text/css">
			.st0{fill:#333;}
		</style>
		<polygon class="st0" points="0,9.9 2.5,6.5 6.6,6.5 0,0 "/>
		<polygon class="st0" points="13,9.5 11.5,8.4 11.5,9.2 9.9,9.2 9.9,7.5 10.6,7.5 9.5,6 8.4,7.5 9.2,7.5 9.2,9.2 7.5,9.2 7.5,8.4 
			6.1,9.5 7.5,10.6 7.5,9.9 9.2,9.9 9.2,11.5 8.4,11.5 9.5,13 10.6,11.5 9.9,11.5 9.9,9.9 11.5,9.9 11.5,10.6 "/>
	</svg>

	<svg id="icon-pan" viewBox="0 0 13 13">
		<style type="text/css">
			.st0{fill:#333;}
		</style>
		<path class="st0" d="M6.9,1C6.5,1,6.2,1.3,6.2,1.7v4.8H5.9V2.7c0-0.4-0.3-0.8-0.8-0.8S4.3,2.3,4.3,2.7v5.7L3.2,6.8
			C3,6.7,2.8,6.5,2.4,6.5c-0.5,0-1,0.4-1,1c0,0.2,0.1,0.4,0.2,0.5l2.8,3.7C4.6,12,4.9,12,5.2,12h5c0.3,0,0.6-0.3,0.7-0.6l0.5-2.9
			c0-0.2,0-0.3,0-0.4V4.5c0-0.4-0.3-0.8-0.8-0.8S9.9,4.1,9.9,4.5v2H9.6V2.7c0-0.4-0.3-0.8-0.8-0.8S8.1,2.3,8.1,2.7v3.8H7.8V1.7
			C7.8,1.3,7.5,1,6.9,1z M6.9,0c0.7,0,1.2,0.3,1.6,1c0.1,0,0.2,0,0.3,0c1,0,1.7,0.8,1.7,1.7v0.1c1-0.1,1.8,0.7,1.8,1.7v3.6
			c0,0.2,0,0.4-0.1,0.6l-0.5,2.9C11.6,12.5,11,13,10.2,13h-5c-0.6,0-1.1-0.3-1.5-0.8L1,8.5c-0.3-0.3-0.3-0.7-0.3-1
			c0-1,0.9-1.8,1.8-1.8c0.3,0,0.7,0.1,1,0.3V2.7c0-1,0.8-1.7,1.7-1.7c0.1,0,0.2,0,0.3,0C5.7,0.3,6.3,0,6.9,0z"/>
	</svg>

	<svg id="icon-pen" viewBox="0 0 13 13">
		<style type="text/css">
			.st0{fill:#333;}
		</style>
		<path class="st0" d="M12.9,3.9L9.2,0.2C9,0,8.8,0,8.7,0.2l-0.5,1l3.6,3.6l1-0.5C13,4.1,13.1,4,12.9,3.9L12.9,3.9z"/>
		<path class="st0" d="M7.6,1.8L4.4,2.7C4.2,2.7,4,2.8,3.9,3l0,0C3,7.5,0,11.8,0,11.8l0.3,0.3l3.6-3.6C3.7,8.4,3.7,8.2,3.7,8
			c0-0.7,0.6-1.3,1.3-1.3S6.3,7.3,6.3,8S5.7,9.3,5,9.3c-0.2,0-0.3-0.1-0.5-0.1l-3.6,3.5L1.1,13c0,0,4.3-2.9,8.8-3.9l0,0
			c0.3-0.1,0.3-0.3,0.3-0.5l0.9-3.2L7.6,1.8L7.6,1.8z"/>
	</svg>

	<svg id="icon-path-add" viewBox="0 0 13 13">
		<style type="text/css">
			.st0{fill:none;stroke:#000000;stroke-miterlimit:10;}
		</style>
		<path class="st0" d="M3.4,12.6c0-2.8,0.3-6.1,3.1-6.1c2.3,0,2.9-2.2,2.9-5.8"/>
		<line class="st0" x1="2.9" y1="4.6" x2="10.1" y2="8.3"/>
		<path class="st0" d="M2.2,5.3L1,4.7C0.9,4.6,0.8,4.4,0.9,4.3l0.6-1.2C1.6,3,1.7,2.9,1.9,3L3,3.6C3.2,3.7,3.2,3.9,3.2,4L2.6,5.2
			C2.5,5.3,2.3,5.4,2.2,5.3z"/>
		<path class="st0" d="M11,9.9L9.9,9.3C9.8,9.2,9.7,9,9.8,8.9l0.6-1.1c0.1-0.2,0.3-0.2,0.4-0.1l1.1,0.6c0.2,0.1,0.2,0.3,0.1,0.4
			l-0.6,1.1C11.4,9.9,11.2,10,11,9.9z"/>
		<circle class="st0" cx="6.2" cy="6.5" r="0.8"/>
	</svg>

	<svg id="icon-new-rectangle" viewBox="0 0 13 13">
		<style type="text/css">
			.st0{opacity:0.5;fill:#333;enable-background:new;}
			.st1{fill:#333;}
		</style>
		<rect x="0.4" y="2.2" class="st0" width="12.1" height="8.7"/>
		<path class="st1" d="M13,11.3H0V1.7h13V11.3z M0.9,10.4h11.3V2.6H0.9V10.4z"/>
	</svg>

	<svg id="icon-new-oval" viewBox="0 0 13 13">
		<style type="text/css">
			.st0{opacity:0.5;fill:#333;enable-background:new;}
			.st1{fill:#333;}
		</style>
		<ellipse class="st0" cx="6.5" cy="6.5" rx="6.1" ry="4.3"/>
		<path class="st1" d="M6.5,11.3c-1.7,0-3.3-0.5-4.6-1.4C0.7,9,0,7.8,0,6.5S0.7,4,1.9,3.1c1.3-1,2.9-1.4,4.6-1.4s3.3,0.5,4.6,1.4
			C12.3,4,13,5.2,13,6.5S12.3,9,11,9.9C9.8,10.7,8.2,11.3,6.5,11.3z M6.5,2.5c-1.6,0-2.9,0.4-4.1,1.2c-1,0.8-1.6,1.7-1.6,2.8
			s0.6,2,1.6,2.8s2.4,1.1,4,1.1s2.9-0.4,4.1-1.2c1-0.8,1.6-1.7,1.6-2.8s-0.6-2-1.6-2.8C9.4,2.9,8.1,2.5,6.5,2.5z"/>
	</svg>

	<svg id="icon-new-path" viewBox="0 0 13 13">
		<style type="text/css">
			.st0{fill:none;stroke:#333;stroke-miterlimit:10;}
			.st1{opacity:0.5;fill:#333;enable-background:new;}
		</style>
		<path class="st0" d="M10.6,3C9.4,1.7,7.1,0.5,4.7,0.5S0.5,1.3,0.5,2.7s3.8,0.8,4.6,2.6s-2.6,2-2.8,3.9s3.1,3.2,5.6,3.2
			S12.5,11,12.5,8S11,3.4,10.6,3z"/>
		<path class="st1" d="M10.6,3C9.4,1.7,7.1,0.5,4.7,0.5S0.5,1.3,0.5,2.7s3.8,0.8,4.6,2.6s-2.6,2-2.8,3.9s3.1,3.2,5.6,3.2
			S12.5,11,12.5,8S11,3.4,10.6,3z"/>
	</svg>


	<svg id="tool-zoom" viewBox="0 0 17 17">
		<path fill="#333" d="M15.5,13.8l-3.5-3c-0.4-0.3-0.8-0.5-1.1-0.5c0.8-1,1.3-2.3,1.3-3.6C12.2,3.5,9.7,1,6.6,1C3.5,1,1,3.5,1,6.6
			s2.5,5.6,5.6,5.6c1.4,0,2.7-0.5,3.6-1.3c0,0.3,0.1,0.7,0.5,1.1l3,3.5c0.5,0.6,1.4,0.6,1.9,0.1C16.1,15.1,16.1,14.3,15.5,13.8
			L15.5,13.8z M6.6,10.4c-2.1,0-3.7-1.7-3.7-3.7s1.7-3.7,3.7-3.7c2.1,0,3.7,1.7,3.7,3.7S8.7,10.4,6.6,10.4z"/>
	</svg>

	<svg id="icon-zoom-plus" viewBox="0 0 17 17">
		<path fill="#333" d="M15.5,13.8l-3.5-3c-0.4-0.3-0.8-0.5-1.1-0.5c0.8-1,1.3-2.3,1.3-3.6C12.2,3.5,9.7,1,6.6,1C3.5,1,1,3.5,1,6.6
			s2.5,5.6,5.6,5.6c1.4,0,2.7-0.5,3.6-1.3c0,0.3,0.1,0.7,0.5,1.1l3,3.5c0.5,0.6,1.4,0.6,1.9,0.1C16.1,15.1,16.1,14.3,15.5,13.8z
			 M6.6,10.4c-2.1,0-3.7-1.7-3.7-3.7s1.7-3.7,3.7-3.7c2.1,0,3.7,1.7,3.7,3.7S8.7,10.4,6.6,10.4z"/>
		<polygon fill="#333" points="7.2,4.1 5.9,4.1 5.9,6.1 4,6.1 4,7.4 5.9,7.4 5.9,9.3 7.2,9.3 7.2,7.4 9.2,7.4 9.2,6.1 7.2,6.1"/>
	</svg>

	<svg id="icon-zoom-minus" viewBox="0 0 17 17">
		<path fill="#333" d="M15.5,13.7l-3.5-3c-0.4-0.3-0.8-0.5-1.1-0.5c0.8-1,1.3-2.2,1.3-3.6c0-3.1-2.5-5.6-5.6-5.6
			c-3.1,0-5.6,2.5-5.6,5.6s2.5,5.6,5.6,5.6c1.4,0,2.6-0.5,3.6-1.3c0,0.3,0.1,0.7,0.5,1.1l3,3.5c0.5,0.6,1.4,0.6,1.9,0.1
			C16.1,15.1,16.1,14.2,15.5,13.7L15.5,13.7z M6.6,10.4c-2.1,0-3.7-1.7-3.7-3.7s1.7-3.7,3.7-3.7c2.1,0,3.7,1.7,3.7,3.7
			S8.7,10.4,6.6,10.4z"/>
		<rect x="4" y="6.1" fill="#333" width="5.2" height="1.3"/>
	</svg>

	<svg id="icon-info" viewBox="0 0 18 18">
		<style type="text/css">
			.st0{fill:#333;}
		</style>
		<path class="st0" d="M7,2.5C7,1.7,7.7,1,8.5,1h1C10.3,1,11,1.7,11,2.5v1C11,4.4,10.3,5,9.5,5h-1C7.7,5,7,4.4,7,3.5V2.5z"/>
		<path class="st0" d="M13,17H5v-2h2V9H5V7h6v8h2V17z"/>
	</svg>

	<svg id="icon-category-all" viewBox="0 0 16 16">
		<style type="text/css">
			.st0{fill:#333;}
		</style>
		<rect class="st0" x="3" y="3" width="3" height="3"/>
		<rect class="st0" x="7" y="3" width="3" height="3"/>
		<rect class="st0" x="11" y="3" width="3" height="3"/>
		<rect class="st0" x="3" y="7" width="3" height="3"/>
		<rect class="st0" x="7" y="7" width="3" height="3"/>
		<rect class="st0" x="11" y="7" width="3" height="3"/>
		<rect class="st0" x="3" y="11" width="3" height="3"/>
		<rect class="st0" x="7" y="11" width="3" height="3"/>
		<rect class="st0" x="11" y="11" width="3" height="3"/>
	</svg>

	<svg id="icon-category-letter" viewBox="0 0 16 16">
		<style type="text/css">
			.st0{fill:#333;}
		</style>
		<path class="st0" d="M9.7,10.1H5.2l-0.8,1.9c-0.2,0.4-0.3,0.8-0.3,1c0,0.2,0.1,0.3,0.3,0.4c0.2,0.2,0.5,0.3,1,0.3V14H1.8v-0.3
			c0.5-0.1,0.8-0.2,0.9-0.3c0.3-0.3,0.6-0.9,0.9-1.7L7.8,2h0.3l4.1,9.8c0.3,0.8,0.6,1.3,0.9,1.5c0.3,0.3,0.6,0.3,1.1,0.4V14H9.6v-0.3
			c0.4,0,0.8-0.1,0.9-0.3c0.2-0.2,0.3-0.3,0.3-0.5s-0.1-0.7-0.3-1.2L9.7,10.1z M9.5,9.5l-2-4.8L5.4,9.5H9.5z"/>
	</svg>

	<svg id="icon-category-number" viewBox="0 0 16 16">
		<style type="text/css">
			.st0{fill:#333;}
		</style>
		<path class="st0" d="M4.6,14v-0.3c0.8,0,1.5-0.2,2.1-0.5s1.2-0.9,1.8-1.7c0.6-0.9,1-1.7,1.2-2.8C8.8,9.3,7.9,9.5,7.2,9.5
			c-0.8,0-1.5-0.3-2.1-0.9C4.6,8,4.4,7.1,4.4,6.1s0.3-1.9,0.9-2.7C5.9,2.5,6.9,2,8,2c0.9,0,1.7,0.4,2.4,1.2c0.9,0.9,1.2,2.2,1.2,3.6
			c0,1.3-0.3,2.5-0.9,3.6c-0.6,1.1-1.5,2.1-2.6,2.8c-0.9,0.6-1.9,0.9-3,0.9C5.1,14,4.6,14,4.6,14z M9.9,8.1c0.1-0.8,0.2-1.3,0.2-1.8
			S10,5.2,9.8,4.5C9.6,3.9,9.4,3.4,9,3C8.6,2.8,8.2,2.6,7.7,2.6c-0.5,0-0.9,0.3-1.3,0.7s-0.6,1.1-0.6,2c0,1.2,0.3,2.2,0.8,2.8
			C7,8.6,7.5,8.8,8,8.8c0.3,0,0.6-0.1,0.9-0.2C9.3,8.5,9.5,8.3,9.9,8.1z"/>
	</svg>

	<svg id="icon-category-punctuation" viewBox="0 0 16 16">
		<style type="text/css">
			.st0{fill:#333;}
		</style>
		<path class="st0" d="M8,11H7.6c0-0.7,0.1-1.3,0.3-1.8C8,8.8,8.3,8.2,8.7,7.3c0.3-0.6,0.6-1.1,0.7-1.5s0.2-0.7,0.2-1c0-0.7-0.2-1.3-0.6-1.7
			C8.6,2.7,8.1,2.5,7.6,2.5c-0.5,0-0.9,0.1-1.2,0.3C6.1,3.1,6,3.3,6,3.6c0,0.2,0.1,0.5,0.3,0.8c0.2,0.3,0.3,0.5,0.3,0.7
			c0,0.2-0.1,0.4-0.2,0.5C6.2,5.7,6,5.8,5.8,5.8c-0.2,0-0.5-0.1-0.6-0.4C5,5.2,4.9,4.9,4.9,4.4c0-0.6,0.3-1.2,0.8-1.7S7,2,7.9,2
			c1.2,0,2,0.3,2.6,1c0.4,0.5,0.6,1,0.6,1.7c0,0.4-0.1,0.8-0.3,1.3c-0.2,0.4-0.5,0.9-1,1.5C9,8.4,8.5,9.1,8.3,9.5
			C8.1,9.8,8,10.4,8,11z M7.8,12.1c0.3,0,0.5,0.1,0.7,0.3c0.2,0.2,0.3,0.4,0.3,0.7c0,0.3-0.1,0.5-0.3,0.7C8.3,13.9,8.1,14,7.8,14
			c-0.3,0-0.5-0.1-0.7-0.3C7,13.5,6.9,13.3,6.9,13c0-0.3,0.1-0.5,0.3-0.7C7.4,12.2,7.6,12.1,7.8,12.1z"/>
	</svg>

	<svg id="icon-category-separator" viewBox="0 0 16 16">
		<style type="text/css">
			.st0{fill:#333;}
		</style>
		<polygon class="st0" points="13,8 13,11 3,11 3,8 2,8 2,12 14,12 14,8 "/>
	</svg>

	<svg id="icon-category-symbol" viewBox="0 0 16 16">
		<style type="text/css">
			.st0{fill:#333;}
		</style>
		<path class="st0" d="M13,10.6l0.5-1.1H14L13.2,14H2v-0.9l3.9-4.6L2,4.7V2h11.4L14,5h-0.4l-0.2-0.5c-0.4-0.9-0.7-1-1.6-1H4l4.1,4.1l-3.5,4.1H11
			C12.3,11.7,12.7,11.2,13,10.6z"/>
	</svg>

	<svg id="icon-category-ligature" viewBox="0 0 16 16">
		<style type="text/css">
			.st0{fill:#333;}
		</style>
		<path class="st0" d="M11.4,12.1C11.4,12.1,11.4,12.1,11.4,12.1l0-5.4L9.8,6.7H6.6V6.5c0-1,0.1-2,0.2-2.4c0.1-0.3,0.3-0.5,0.5-0.7
			C7.6,3.1,7.9,3,8.2,3c0.2,0,0.4,0,0.5,0.1C8.9,3.2,9,3.4,9.2,3.6C9.7,4.3,9.9,4.5,10,4.5c0.2,0.1,0.4,0.2,0.6,0.2
			c0.2,0,0.4-0.1,0.6-0.3c0.2-0.2,0.3-0.4,0.3-0.6c0-0.3-0.1-0.6-0.3-0.8c-0.2-0.3-0.5-0.5-1-0.7C9.7,2.1,9.2,2,8.7,2
			c-0.8,0-1.4,0.2-2,0.5C6,2.9,5.6,3.4,5.3,4C5,4.6,5,5.7,5,6.7H3.4v0.9H5v4c0,0.9-0.3,1.1-0.4,1.3c-0.1,0.2-0.4,0.4-0.8,0.4H3.4V14
			h4.8v-0.7H8.1c-1.1,0-1.5-0.1-1.5-1.5c0,0,0,0,0,0l0-4.2h1.7c0.9,0,1.1,0,1.2,0.1c0.1,0,0.1,0.1,0.2,0.1c0,0,0.1,0.3,0.1,1v3.1
			c0,0.7-0.1,1-0.1,1.1c-0.1,0.2-0.3,0.3-0.7,0.3V14h3.7v-0.7C11.5,13.3,11.4,13.2,11.4,12.1L11.4,12.1z"/>
	</svg>

	<svg id="icon-language-latin" viewBox="0 0 16 16">
		<style type="text/css">
			.st0{fill:#333;}
		</style>
		<path class="st0" d="M12.2,2.1l0.3,3.6h-0.3c-0.3-0.9-0.7-1.6-1.1-2c-0.7-0.7-1.5-1-2.6-1C7,2.6,5.9,3.2,5.1,4.4c-0.6,1-0.9,2.1-0.9,3.5
			c0,1.1,0.2,2.1,0.6,3s1,1.6,1.6,2c0.7,0.4,1.4,0.6,2.1,0.6c0.4,0,0.8-0.1,1.2-0.2c0.4-0.1,0.8-0.3,1.1-0.5V9.5c0-0.6,0-0.9-0.1-1.1
			c-0.1-0.2-0.2-0.3-0.4-0.4c-0.2-0.1-0.5-0.1-1-0.1V7.5h4.4v0.3h-0.2c-0.4,0-0.7,0.1-0.9,0.4c-0.1,0.2-0.2,0.6-0.2,1.2v3.5
			c-0.6,0.3-1.3,0.6-1.9,0.8c-0.6,0.2-1.3,0.2-2.1,0.2c-2.2,0-3.9-0.7-5-2.1c-0.9-1.1-1.3-2.3-1.3-3.7c0-1,0.2-2,0.7-2.9
			c0.6-1.1,1.4-1.9,2.3-2.5c0.8-0.5,1.8-0.7,3-0.7c0.4,0,0.8,0,1.1,0.1c0.3,0.1,0.8,0.2,1.4,0.4c0.3,0.1,0.5,0.2,0.6,0.2
			s0.2,0,0.3-0.1c0.1-0.1,0.1-0.3,0.1-0.6H12.2z"/>
	</svg>

	<svg id="icon-language-cryllic" viewBox="0 0 16 16">
		<style type="text/css">
			.st0{fill:#333;}
		</style>
		<path class="st0" d="M2.1,13.6c0.7-0.1,1.2-0.2,1.6-0.5s0.9-0.8,1.5-1.6l2.5-3.4C6.6,7.9,5.8,7.6,5.3,7C4.9,6.5,4.6,5.8,4.6,5.1
			c0-0.7,0.2-1.3,0.6-1.8c0.4-0.5,0.9-0.8,1.5-1C7.4,2.1,8.3,2,9.6,2h4.3v0.3h-0.4c-0.5,0-0.8,0.1-1,0.4c-0.2,0.2-0.2,0.6-0.2,1.4
			v7.7c0,0.7,0.1,1.1,0.2,1.3c0.2,0.3,0.6,0.5,1.1,0.5h0.4V14H8.8v-0.3h0.5c0.4,0,0.8-0.1,1-0.4c0.2-0.2,0.2-0.6,0.2-1.4V8.4
			c-0.1,0-0.2,0-0.3,0s-0.2,0-0.2,0c-0.2,0-0.4,0-0.7,0l-4,5.6H2.1V13.6z M10.5,2.9c-0.6-0.1-1-0.2-1.4-0.2c-0.8,0-1.4,0.2-1.8,0.7
			C6.8,3.9,6.6,4.5,6.6,5.2c0,0.8,0.3,1.4,0.9,1.9C8.1,7.6,8.9,7.8,10,7.8c0.1,0,0.1,0,0.2,0s0.2,0,0.3,0V2.9z"/>
	</svg>

	<svg id="icon-language-greek" viewBox="0 0 16 16">
		<style type="text/css">
			.st0{fill:#333;}
		</style>
		<path class="st0" d="M10.3,12.5h3L14,11v3H9.5v-2.5c1.5-0.7,2.6-2.3,2.6-4.2c0-2.5-1.8-4.5-4.1-4.5c-2.3,0-4.1,2-4.1,4.5c0,1.9,1.1,3.6,2.6,4.2
			V14H2v-3l0.8,1.5h3v-0.4C3.5,11.3,2,9.5,2,7.2C2,4.3,4.7,2,8,2s6,2.4,6,5.3c0,2.2-1.6,4.1-3.8,4.9V12.5z"/>
	</svg>

	<svg id="icon-align-top" viewBox="0 0 17 17">
		<rect x="1" y="2" fill="#333" width="15" height="1"/>
		<rect x="2" y="4" fill="#333" width="6" height="11"/>
		<rect x="10" y="4" fill="#333" width="5" height="8"/>
		<rect x="3" y="5" fill="#777" width="4" height="9"/>
	</svg>

	<svg id="icon-align-middle" viewBox="0 0 17 17">
		<rect x="1" y="8" fill="#333" width="15" height="1"/>
		<rect x="9" y="3" fill="#333" width="6" height="11"/>
		<rect x="2" y="5" fill="#333" width="5" height="7"/>
		<rect x="10" y="4" fill="#777" width="4" height="9"/>
	</svg>

	<svg id="icon-align-bottom" viewBox="0 0 17 17">
		<rect x="1" y="15" fill="#333" width="15" height="1"/>
		<rect x="2" y="3" fill="#333" width="6" height="11"/>
		<rect x="10" y="6" fill="#333" width="5" height="8"/>
		<rect x="3" y="4" fill="#777" width="4" height="9"/>
	</svg>

	<svg id="icon-vertical-centers" viewBox="0 0 17 17">
		<polygon fill="#333" points="15,3 13,3 13,1 12,1 12,3 10,3 10,14 12,14 12,16 13,16 13,14 15,14"/>
		<polygon fill="#333" points="5,1 4,1 4,5 2,5 2,13 4,13 4,16 5,16 5,13 7,13 7,5 5,5"/>
		<rect x="11" y="4" fill="#777" width="3" height="9"/>
	</svg>

	<svg id="icon-align-left" viewBox="0 0 17 17">
		<rect x="1" y="1" fill="#333" width="1" height="15"/>
		<rect x="3" y="10" fill="#333" width="8" height="5"/>
		<rect x="3" y="2" fill="#333" width="11" height="6"/>
		<rect x="4" y="3" fill="#777" width="9" height="4"/>
	</svg>

	<svg id="icon-align-center" viewBox="0 0 17 17">
		<polygon fill="#333" points="15,8 15,2 9,2 9,1 8,1 8,2 2,2 2,8 8,8 8,10 5,10 5,15 8,15 8,16 9,16 9,15 12,15 12,10 9,10 9,8"/>
		<rect x="3" y="3" fill="#777" width="11" height="4"/>
	</svg>

	<svg id="icon-align-right" viewBox="0 0 17 17">
		<rect x="15" y="1" fill="#333" width="1" height="15"/>
		<rect x="6" y="10" fill="#333" width="8" height="5"/>
		<rect x="3" y="2" fill="#333" width="11" height="6"/>
		<rect x="4" y="3" fill="#777" width="9" height="4"/>
	</svg>

	<svg id="icon-horizontal-centers" viewBox="0 0 17 17">
		<polygon fill="#333" points="15,4 15,2 2,2 2,4 1,4 1,5 2,5 2,7 15,7 15,5 16,5 16,4"/>
		<polygon fill="#333" points="13,10 4,10 4,12 1,12 1,13 4,13 4,15 13,15 13,13 16,13 16,12 13,12"/>
		<rect x="3" y="3" fill="#777" width="11" height="3"/>
	</svg>

	<svg id="icon-folder-open" viewBox="0 0 17 17">
		<path fill="#333" d="M16,9.5c0,0.2-0.1,0.4-0.2,0.5L13.1,13c-0.5,0.5-1.4,1-2.1,1H2.3c-0.3,0-0.7-0.1-0.7-0.4c0-0.2,0.1-0.4,0.2-0.5L4.5,10
			C5,9.4,5.9,9,6.6,9h8.7C15.6,9,16,9.1,16,9.5z M13.2,6.4V8H6.6c-1,0-2.2,0.6-2.9,1.3L1,12.4c0-0.1,0-0.1,0-0.2l0-7.7
			C1,3.5,1.3,3,2.3,3h3.5c1,0,1.4,0.3,1.4,1.3V5h4.7C12.8,5,13.2,5.4,13.2,6.4z"/>
	</svg>

	<svg id="icon-clipboard" viewBox="0 0 17 17">
		<path fill="#333" d="M14.6,2.9h-4.2c0-1-0.8-1.9-1.9-1.9S6.6,1.8,6.6,2.9H2.4c-0.3,0-0.5,0.2-0.5,0.5v12.2c0,0.3,0.2,0.5,0.5,0.5h12.2
			c0.3,0,0.5-0.2,0.5-0.5V3.3C15.1,3.1,14.9,2.9,14.6,2.9z M8.5,1.9c0.5,0,0.9,0.4,0.9,0.9S9,3.8,8.5,3.8S7.6,3.4,7.6,2.9
			S8,1.9,8.5,1.9z M14,15H3V4h1.7v1.5C4.7,5.8,5,6,5.2,6h6.6c0.3,0,0.5-0.2,0.5-0.5V4H14V15z"/>
		<path fill="#333" d="M7.6,13.6l-3-3.5l0.9-0.9l2.2,1.7l4-3.6l0.9,0.9L7.6,13.6z"/>
	</svg>

	<svg id="icon-minus" viewBox="0 0 17 17">
		<style type="text/css">
			.st0{fill:#333;}
		</style>
		<rect class="st0" x="3" y="8" width="11" height="1"/>
	</svg>

	<svg id="icon-plus" viewBox="0 0 17 17">
		<style type="text/css">
			.st0{fill:#333;}
		</style>
		<rect class="st0" x="3" y="8" width="11" height="1"/>
		<rect class="st0" x="8" y="3" width="1" height="11"/>
	</svg>

	<svg id="icon-fit" viewBox="0 0 17 17">
		<style type="text/css">
			.st0{fill:#333;}
		</style>
		<polygon class="st0" points="12.9,5.5 15,7.5 15,2 9.5,2 11.5,4.1 8.5,7.1 5.5,4.1 7.5,2 2,2 2,7.5 4.1,5.5 7.1,8.5 4.1,11.5 2,9.5 2,15 7.5,15 
			5.5,12.9 8.5,9.9 11.5,12.9 9.5,15 15,15 15,9.5 12.9,11.5 9.9,8.5"/>
	</svg>

	<svg id="tmp-file-courier" viewBox="0 0 47 47">
		<style type="text/css">
			.st0{fill:#333;}
		</style>
		<path class="st0" d="M18.3,8.8h-4.8c-1.3,0-2.3-0.2-2.8-0.5c-0.5-0.4-0.8-1-0.8-1.8c0-0.9,0.2-1.5,0.7-1.9c0.5-0.3,1.8-0.5,3.9-0.5h9.3
		c1.2,0,2,0.2,2.4,0.5c0.4,0.3,0.8,0.9,1.2,1.8l12.8,32h0.6c1.2,0,2,0.2,2.4,0.5c0.4,0.3,0.7,0.9,0.7,1.8c0,0.9-0.2,1.5-0.6,1.9
		c-0.4,0.3-1.2,0.5-2.3,0.5H32c-1.7,0-2.7-0.2-3.2-0.5s-0.7-1-0.7-1.9c0-0.8,0.3-1.4,0.8-1.8c0.5-0.3,1.5-0.5,2.9-0.5h3l-3.2-7.8H15
		l-2.8,7.8h3.2c1.4,0,2.4,0.2,3,0.5s0.8,0.9,0.8,1.8c0,0.9-0.2,1.5-0.7,1.9s-1.5,0.5-3.1,0.5H6.6c-1.4,0-2.3-0.2-2.8-0.5
		s-0.7-1-0.7-1.9c0-0.9,0.2-1.4,0.7-1.8c0.5-0.3,1.3-0.5,2.7-0.5h0.6L18.3,8.8z M16.6,26.2H30L23,8.8L16.6,26.2z"/>
	</svg>

	<svg id="tmp-file-helvetica" viewBox="0 0 47 47">
		<style type="text/css">
			.st0{fill:#333;}
		</style>
		<path class="st0" d="M26.3,4L41.6,43h-5.7l-4.3-11.7H15.1L10.7,43H5.4L20.6,4H26.3z M29.9,26.9L23.4,8.7h-0.1l-6.6,18.2H29.9z"/>
	</svg>

	<svg id="tmp-file-comic-sans" viewBox="0 0 47 47">
		<style type="text/css">
			.st0{fill:#333;}
		</style>
		<path class="st0" d="M36.6,42.9c-1.6,0-3-2-4.1-6.1c-0.4-1.5-1-4.3-1.7-8.1c-1.8,0.2-4,0.7-6.9,1.3l-6.9,1.4c-0.9,2.3-2.3,5.5-4.4,9.9
		c-0.6,1-1.3,1.4-2.2,1.4c-0.7,0-1.3-0.2-1.8-0.7c-0.5-0.5-0.8-1.1-0.8-1.9c0-0.8,1.3-4,3.9-9.4c-0.3-0.4-0.4-1-0.4-1.5
		c0-1.4,0.8-2.3,2.5-2.7c2-3.7,4.4-7.9,7.4-12.7c4.1-6.5,6.6-9.8,7.6-9.8c1.4,0,2.3,0.9,2.8,2.8l1.6,8.7L37,33.5l1.5,4.1
		c0.5,1.4,0.7,2.3,0.7,2.8c0,0.7-0.3,1.4-0.8,1.9C37.9,42.7,37.3,42.9,36.6,42.9z M27.5,13.5l-7.4,11.9c2.1-0.5,5.2-1.2,9.5-1.9
		L27.5,13.5z"/>
	</svg>

	<svg id="tmp-file-times" viewBox="0 0 47 47">
		<style type="text/css">
			.st0{fill:#333;}
		</style>
		<path class="st0" d="M29.2,30.2H14.4l-2.6,6c-0.6,1.5-1,2.6-1,3.3c0,0.6,0.3,1.1,0.8,1.5c0.6,0.4,1.8,0.7,3.6,0.9v1h-12v-1
		c1.6-0.3,2.6-0.6,3.1-1.1c1-0.9,2-2.7,3.2-5.5L22.9,4h1l13.3,31.8c1.1,2.6,2,4.2,2.9,5c0.9,0.8,2.1,1.2,3.6,1.3v1H28.7v-1
		c1.5-0.1,2.5-0.3,3.1-0.8s0.8-1,0.8-1.6c0-0.8-0.4-2.1-1.1-3.9L29.2,30.2z M28.4,28.2l-6.5-15.4l-6.6,15.4H28.4z"/>
	</svg>
</svg>