<svg xmlns="http://www.w3.org/2000/svg" width="0" height="0">

	<svg id="icon-undo" viewBox="0 0 13 13">
		<style type="text/css">
			.st0{fill:#333;}
		</style>
		<path class="st0" d="M6.5,1.9C5,1.9,3.6,2.5,2.6,3.5L1,1.9V6h4.1L3.6,4.5c0.7-0.7,1.8-1.2,2.9-1.2c2.3,0,4.1,1.8,4.1,4.1c0,1.2-0.5,2.3-1.4,3.1 l0.9,1c1.1-1,1.9-2.5,1.9-4.1C12,4.3,9.5,1.9,6.5,1.9z"/>
	</svg>

	<svg id="icon-redo" viewBox="0 0 13 13">
		<style type="text/css">
			.st0{fill:#333;}
		</style>
		<path class="st0" d="M1,7.4c0,1.6,0.7,3.1,1.8,4.1l0.9-1C2.9,9.7,2.4,8.6,2.4,7.4c0-2.3,1.8-4.1,4.1-4.1c1.1,0,2.2,0.5,2.9,1.2L7.9,6H12V1.9 l-1.6,1.6c-1-1-2.4-1.6-3.9-1.6C3.5,1.9,1,4.4,1,7.4z"/>
	</svg>

	<svg id="icon-filled" viewBox="0 0 13 13">
		<style type="text/css">
			.st0{fill:#333;}
		</style>
		<path class="st0" d="M12,3.2c0,0.5-0.2,1-0.5,1.4c-0.3,0.4-0.8,0.6-1.3,0.6c-0.5,0-1-0.1-1.3-0.4C8.4,4.6,8.2,4.2,8.2,3.7c0-0.3,0-0.4,0.1-0.6
		c0-0.1,0.1-0.3,0.1-0.4c-0.3,0-0.7,0.1-1.1,0.3C7,3.3,6.6,3.6,6.4,3.9v5.9c0,0.3,0,0.5,0.1,0.6c0.1,0.2,0.2,0.3,0.4,0.4
		C7,11,7.3,11.1,7.7,11.1c0.4,0.1,0.6,0.1,0.8,0.1V12H1.2v-0.8c0.2,0,0.4,0,0.5-0.1s0.3-0.1,0.5-0.1c0.2-0.1,0.4-0.2,0.5-0.4
		c0.1-0.2,0.1-0.4,0.1-0.6V3.7c0-0.3-0.1-0.5-0.2-0.7C2.5,2.8,2.4,2.7,2.2,2.5C2,2.4,1.9,2.4,1.7,2.3S1.3,2.2,1,2.2V1.4l5.2-0.3
		l0.2,0.2v1.6h0c0.5-0.6,1-1,1.6-1.4S9.1,1,9.7,1c0.7,0,1.2,0.2,1.6,0.6S12,2.6,12,3.2z"/>
	</svg>

	<svg id="icon-outline" viewBox="0 0 13 13">
		<style type="text/css">
			.st0{fill:#333;}
		</style>
		<path class="st0" d="M9.4,1.5c0.6,0,1.1,0.2,1.5,0.6c0.4,0.4,0.6,0.9,0.6,1.5c0,0.5-0.2,0.9-0.5,1.3c-0.3,0.4-0.7,0.6-1.2,0.6
			c-0.5,0-0.9-0.1-1.2-0.4C8.2,4.8,8.1,4.5,8.1,4c0-0.2,0-0.4,0-0.5c0-0.1,0.1-0.2,0.1-0.4c-0.3,0-0.6,0.1-1,0.3
			C6.9,3.6,6.6,3.9,6.4,4.2v5.4c0,0.2,0,0.4,0.1,0.6c0.1,0.2,0.2,0.3,0.4,0.4c0.1,0.1,0.4,0.1,0.7,0.2c0.3,0,0.6,0.1,0.7,0.1v0.7
			H1.7v-0.7c0.2,0,0.3,0,0.5-0.1c0.2,0,0.3-0.1,0.4-0.1C2.8,10.5,3,10.4,3,10.3c0.1-0.2,0.1-0.3,0.1-0.6V4c0-0.2-0.1-0.4-0.2-0.6
			C2.9,3.2,2.7,3,2.6,2.9C2.5,2.8,2.3,2.8,2.1,2.7C2,2.7,1.8,2.6,1.5,2.6V1.9l4.7-0.3l0.1,0.1v1.4h0C6.9,2.7,7.3,2.3,7.9,2
			C8.4,1.7,8.9,1.5,9.4,1.5 M9.4,1C8.8,1,8.2,1.2,7.6,1.5C7.4,1.7,7.1,1.8,6.9,2V1.8V1.6L6.7,1.4L6.6,1.3L6.4,1.1l-0.2,0L1.5,1.4
			L1,1.4v0.5v0.7v0.5l0.5,0c0.2,0,0.4,0,0.5,0.1c0.1,0,0.2,0.1,0.3,0.1c0.1,0.1,0.2,0.2,0.3,0.3C2.6,3.7,2.7,3.8,2.7,4v5.7
			c0,0.2,0,0.3-0.1,0.4c0,0-0.1,0.1-0.2,0.1c-0.1,0-0.2,0.1-0.3,0.1c-0.2,0-0.3,0-0.5,0.1l-0.5,0v0.5v0.7V12h0.5h6.6h0.5v-0.5v-0.7
			v-0.5l-0.5,0c-0.1,0-0.3,0-0.7-0.1c-0.4-0.1-0.5-0.1-0.6-0.1C7,10,6.9,10,6.9,9.9c0-0.1-0.1-0.2-0.1-0.4V4.4
			C7.1,4.2,7.3,4,7.5,3.8c0,0,0,0,0.1,0c0,0.1,0,0.1,0,0.2c0,0.6,0.2,1.1,0.7,1.5c0.4,0.3,0.9,0.5,1.5,0.5c0.6,0,1.2-0.3,1.6-0.7
			c0.4-0.5,0.6-1,0.6-1.6c0-0.7-0.2-1.3-0.7-1.8C10.8,1.3,10.2,1,9.4,1L9.4,1z"/>
	</svg>

	<svg id="icon-sidebar" viewBox="0 0 13 13">
		<style type="text/css">
			.st0{fill:#333;}
		</style>
		<path class="st0" d="M11,2H6H5H2H1v1v7v1h1h3h1h5h1v-1V3V2H11z M2,10V3h5v7H2z M11,10H8V3h3V10z"/>
		<rect x="9" y="4" class="st0" width="1" height="1"/>
		<rect x="9" y="6" class="st0" width="1" height="1"/>
	</svg>


	<svg id="icon-move" viewBox="0 0 13 13">
		<style type="text/css">
			.st0{fill:#333;}
		</style>
		<polygon class="st0" points="0,9.9 2.5,6.5 6.6,6.5 0,0 "/>
		<polygon class="st0" points="13,9.5 11.5,8.4 11.5,9.2 9.9,9.2 9.9,7.5 10.6,7.5 9.5,6 8.4,7.5 9.2,7.5 9.2,9.2 7.5,9.2 7.5,8.4 
			6.1,9.5 7.5,10.6 7.5,9.9 9.2,9.9 9.2,11.5 8.4,11.5 9.5,13 10.6,11.5 9.9,11.5 9.9,9.9 11.5,9.9 11.5,10.6 "/>
	</svg>

	<svg id="icon-pan" viewBox="0 0 13 13">
		<style type="text/css">
			.st0{fill:#333;}
		</style>
		<path class="st0" d="M6.9,1C6.5,1,6.2,1.3,6.2,1.7v4.8H5.9V2.7c0-0.4-0.3-0.8-0.8-0.8S4.3,2.3,4.3,2.7v5.7L3.2,6.8
			C3,6.7,2.8,6.5,2.4,6.5c-0.5,0-1,0.4-1,1c0,0.2,0.1,0.4,0.2,0.5l2.8,3.7C4.6,12,4.9,12,5.2,12h5c0.3,0,0.6-0.3,0.7-0.6l0.5-2.9
			c0-0.2,0-0.3,0-0.4V4.5c0-0.4-0.3-0.8-0.8-0.8S9.9,4.1,9.9,4.5v2H9.6V2.7c0-0.4-0.3-0.8-0.8-0.8S8.1,2.3,8.1,2.7v3.8H7.8V1.7
			C7.8,1.3,7.5,1,6.9,1z M6.9,0c0.7,0,1.2,0.3,1.6,1c0.1,0,0.2,0,0.3,0c1,0,1.7,0.8,1.7,1.7v0.1c1-0.1,1.8,0.7,1.8,1.7v3.6
			c0,0.2,0,0.4-0.1,0.6l-0.5,2.9C11.6,12.5,11,13,10.2,13h-5c-0.6,0-1.1-0.3-1.5-0.8L1,8.5c-0.3-0.3-0.3-0.7-0.3-1
			c0-1,0.9-1.8,1.8-1.8c0.3,0,0.7,0.1,1,0.3V2.7c0-1,0.8-1.7,1.7-1.7c0.1,0,0.2,0,0.3,0C5.7,0.3,6.3,0,6.9,0z"/>
	</svg>

	<svg id="icon-pen" viewBox="0 0 13 13">
		<style type="text/css">
			.st0{fill:#333;}
		</style>
		<path class="st0" d="M12.9,3.9L9.2,0.2C9,0,8.8,0,8.7,0.2l-0.5,1l3.6,3.6l1-0.5C13,4.1,13.1,4,12.9,3.9L12.9,3.9z"/>
		<path class="st0" d="M7.6,1.8L4.4,2.7C4.2,2.7,4,2.8,3.9,3l0,0C3,7.5,0,11.8,0,11.8l0.3,0.3l3.6-3.6C3.7,8.4,3.7,8.2,3.7,8
			c0-0.7,0.6-1.3,1.3-1.3S6.3,7.3,6.3,8S5.7,9.3,5,9.3c-0.2,0-0.3-0.1-0.5-0.1l-3.6,3.5L1.1,13c0,0,4.3-2.9,8.8-3.9l0,0
			c0.3-0.1,0.3-0.3,0.3-0.5l0.9-3.2L7.6,1.8L7.6,1.8z"/>
	</svg>

	<svg id="icon-path-add" viewBox="0 0 13 13">
		<style type="text/css">
			.st0{fill:none;stroke:#000000;stroke-miterlimit:10;}
		</style>
		<path class="st0" d="M3.4,12.6c0-2.8,0.3-6.1,3.1-6.1c2.3,0,2.9-2.2,2.9-5.8"/>
		<line class="st0" x1="2.9" y1="4.6" x2="10.1" y2="8.3"/>
		<path class="st0" d="M2.2,5.3L1,4.7C0.9,4.6,0.8,4.4,0.9,4.3l0.6-1.2C1.6,3,1.7,2.9,1.9,3L3,3.6C3.2,3.7,3.2,3.9,3.2,4L2.6,5.2
			C2.5,5.3,2.3,5.4,2.2,5.3z"/>
		<path class="st0" d="M11,9.9L9.9,9.3C9.8,9.2,9.7,9,9.8,8.9l0.6-1.1c0.1-0.2,0.3-0.2,0.4-0.1l1.1,0.6c0.2,0.1,0.2,0.3,0.1,0.4
			l-0.6,1.1C11.4,9.9,11.2,10,11,9.9z"/>
		<circle class="st0" cx="6.2" cy="6.5" r="0.8"/>
	</svg>

	<svg id="icon-new-rectangle" viewBox="0 0 13 13">
		<style type="text/css">
			.st0{opacity:0.5;fill:#333;enable-background:new;}
			.st1{fill:#333;}
		</style>
		<rect x="0.4" y="2.2" class="st0" width="12.1" height="8.7"/>
		<path class="st1" d="M13,11.3H0V1.7h13V11.3z M0.9,10.4h11.3V2.6H0.9V10.4z"/>
	</svg>

	<svg id="icon-new-oval" viewBox="0 0 13 13">
		<style type="text/css">
			.st0{opacity:0.5;fill:#333;enable-background:new;}
			.st1{fill:#333;}
		</style>
		<ellipse class="st0" cx="6.5" cy="6.5" rx="6.1" ry="4.3"/>
		<path class="st1" d="M6.5,11.3c-1.7,0-3.3-0.5-4.6-1.4C0.7,9,0,7.8,0,6.5S0.7,4,1.9,3.1c1.3-1,2.9-1.4,4.6-1.4s3.3,0.5,4.6,1.4
			C12.3,4,13,5.2,13,6.5S12.3,9,11,9.9C9.8,10.7,8.2,11.3,6.5,11.3z M6.5,2.5c-1.6,0-2.9,0.4-4.1,1.2c-1,0.8-1.6,1.7-1.6,2.8
			s0.6,2,1.6,2.8s2.4,1.1,4,1.1s2.9-0.4,4.1-1.2c1-0.8,1.6-1.7,1.6-2.8s-0.6-2-1.6-2.8C9.4,2.9,8.1,2.5,6.5,2.5z"/>
	</svg>

	<svg id="icon-new-path" viewBox="0 0 13 13">
		<style type="text/css">
			.st0{fill:none;stroke:#333;stroke-miterlimit:10;}
			.st1{opacity:0.5;fill:#333;enable-background:new;}
		</style>
		<path class="st0" d="M10.6,3C9.4,1.7,7.1,0.5,4.7,0.5S0.5,1.3,0.5,2.7s3.8,0.8,4.6,2.6s-2.6,2-2.8,3.9s3.1,3.2,5.6,3.2
			S12.5,11,12.5,8S11,3.4,10.6,3z"/>
		<path class="st1" d="M10.6,3C9.4,1.7,7.1,0.5,4.7,0.5S0.5,1.3,0.5,2.7s3.8,0.8,4.6,2.6s-2.6,2-2.8,3.9s3.1,3.2,5.6,3.2
			S12.5,11,12.5,8S11,3.4,10.6,3z"/>
	</svg>


	<svg id="tool-zoom" viewBox="0 0 17 17">
		<path fill="#333" d="M15.5,13.8l-3.5-3c-0.4-0.3-0.8-0.5-1.1-0.5c0.8-1,1.3-2.3,1.3-3.6C12.2,3.5,9.7,1,6.6,1C3.5,1,1,3.5,1,6.6
			s2.5,5.6,5.6,5.6c1.4,0,2.7-0.5,3.6-1.3c0,0.3,0.1,0.7,0.5,1.1l3,3.5c0.5,0.6,1.4,0.6,1.9,0.1C16.1,15.1,16.1,14.3,15.5,13.8
			L15.5,13.8z M6.6,10.4c-2.1,0-3.7-1.7-3.7-3.7s1.7-3.7,3.7-3.7c2.1,0,3.7,1.7,3.7,3.7S8.7,10.4,6.6,10.4z"/>
	</svg>

	<svg id="icon-zoom-plus" viewBox="0 0 17 17">
		<path fill="#333" d="M15.5,13.8l-3.5-3c-0.4-0.3-0.8-0.5-1.1-0.5c0.8-1,1.3-2.3,1.3-3.6C12.2,3.5,9.7,1,6.6,1C3.5,1,1,3.5,1,6.6
			s2.5,5.6,5.6,5.6c1.4,0,2.7-0.5,3.6-1.3c0,0.3,0.1,0.7,0.5,1.1l3,3.5c0.5,0.6,1.4,0.6,1.9,0.1C16.1,15.1,16.1,14.3,15.5,13.8z
			 M6.6,10.4c-2.1,0-3.7-1.7-3.7-3.7s1.7-3.7,3.7-3.7c2.1,0,3.7,1.7,3.7,3.7S8.7,10.4,6.6,10.4z"/>
		<polygon fill="#333" points="7.2,4.1 5.9,4.1 5.9,6.1 4,6.1 4,7.4 5.9,7.4 5.9,9.3 7.2,9.3 7.2,7.4 9.2,7.4 9.2,6.1 7.2,6.1"/>
	</svg>

	<svg id="icon-zoom-minus" viewBox="0 0 17 17">
		<path fill="#333" d="M15.5,13.7l-3.5-3c-0.4-0.3-0.8-0.5-1.1-0.5c0.8-1,1.3-2.2,1.3-3.6c0-3.1-2.5-5.6-5.6-5.6
			c-3.1,0-5.6,2.5-5.6,5.6s2.5,5.6,5.6,5.6c1.4,0,2.6-0.5,3.6-1.3c0,0.3,0.1,0.7,0.5,1.1l3,3.5c0.5,0.6,1.4,0.6,1.9,0.1
			C16.1,15.1,16.1,14.2,15.5,13.7L15.5,13.7z M6.6,10.4c-2.1,0-3.7-1.7-3.7-3.7s1.7-3.7,3.7-3.7c2.1,0,3.7,1.7,3.7,3.7
			S8.7,10.4,6.6,10.4z"/>
		<rect x="4" y="6.1" fill="#333" width="5.2" height="1.3"/>
	</svg>

	<svg id="icon-info" viewBox="0 0 18 18">
		<style type="text/css">
			.st0{fill:#333;}
		</style>
		<path class="st0" d="M7,2.5C7,1.7,7.7,1,8.5,1h1C10.3,1,11,1.7,11,2.5v1C11,4.4,10.3,5,9.5,5h-1C7.7,5,7,4.4,7,3.5V2.5z"/>
		<path class="st0" d="M13,17H5v-2h2V9H5V7h6v8h2V17z"/>
	</svg>

	<svg id="icon-category-all" viewBox="0 0 16 16">
		<style type="text/css">
			.st0{fill:#333;}
		</style>
		<rect class="st0" x="3" y="3" width="3" height="3"/>
		<rect class="st0" x="7" y="3" width="3" height="3"/>
		<rect class="st0" x="11" y="3" width="3" height="3"/>
		<rect class="st0" x="3" y="7" width="3" height="3"/>
		<rect class="st0" x="7" y="7" width="3" height="3"/>
		<rect class="st0" x="11" y="7" width="3" height="3"/>
		<rect class="st0" x="3" y="11" width="3" height="3"/>
		<rect class="st0" x="7" y="11" width="3" height="3"/>
		<rect class="st0" x="11" y="11" width="3" height="3"/>
	</svg>

	<svg id="icon-category-letter" viewBox="0 0 16 16">
		<style type="text/css">
			.st0{fill:#333;}
		</style>
		<path class="st0" d="M9.7,10.1H5.2l-0.8,1.9c-0.2,0.4-0.3,0.8-0.3,1c0,0.2,0.1,0.3,0.3,0.4c0.2,0.2,0.5,0.3,1,0.3V14H1.8v-0.3
			c0.5-0.1,0.8-0.2,0.9-0.3c0.3-0.3,0.6-0.9,0.9-1.7L7.8,2h0.3l4.1,9.8c0.3,0.8,0.6,1.3,0.9,1.5c0.3,0.3,0.6,0.3,1.1,0.4V14H9.6v-0.3
			c0.4,0,0.8-0.1,0.9-0.3c0.2-0.2,0.3-0.3,0.3-0.5s-0.1-0.7-0.3-1.2L9.7,10.1z M9.5,9.5l-2-4.8L5.4,9.5H9.5z"/>
	</svg>

	<svg id="icon-category-number" viewBox="0 0 16 16">
		<style type="text/css">
			.st0{fill:#333;}
		</style>
		<path class="st0" d="M4.6,14v-0.3c0.8,0,1.5-0.2,2.1-0.5s1.2-0.9,1.8-1.7c0.6-0.9,1-1.7,1.2-2.8C8.8,9.3,7.9,9.5,7.2,9.5
			c-0.8,0-1.5-0.3-2.1-0.9C4.6,8,4.4,7.1,4.4,6.1s0.3-1.9,0.9-2.7C5.9,2.5,6.9,2,8,2c0.9,0,1.7,0.4,2.4,1.2c0.9,0.9,1.2,2.2,1.2,3.6
			c0,1.3-0.3,2.5-0.9,3.6c-0.6,1.1-1.5,2.1-2.6,2.8c-0.9,0.6-1.9,0.9-3,0.9C5.1,14,4.6,14,4.6,14z M9.9,8.1c0.1-0.8,0.2-1.3,0.2-1.8
			S10,5.2,9.8,4.5C9.6,3.9,9.4,3.4,9,3C8.6,2.8,8.2,2.6,7.7,2.6c-0.5,0-0.9,0.3-1.3,0.7s-0.6,1.1-0.6,2c0,1.2,0.3,2.2,0.8,2.8
			C7,8.6,7.5,8.8,8,8.8c0.3,0,0.6-0.1,0.9-0.2C9.3,8.5,9.5,8.3,9.9,8.1z"/>
	</svg>

	<svg id="icon-category-punctuation" viewBox="0 0 16 16">
		<style type="text/css">
			.st0{fill:#333;}
		</style>
		<path class="st0" d="M8,11H7.6c0-0.7,0.1-1.3,0.3-1.8C8,8.8,8.3,8.2,8.7,7.3c0.3-0.6,0.6-1.1,0.7-1.5s0.2-0.7,0.2-1c0-0.7-0.2-1.3-0.6-1.7
			C8.6,2.7,8.1,2.5,7.6,2.5c-0.5,0-0.9,0.1-1.2,0.3C6.1,3.1,6,3.3,6,3.6c0,0.2,0.1,0.5,0.3,0.8c0.2,0.3,0.3,0.5,0.3,0.7
			c0,0.2-0.1,0.4-0.2,0.5C6.2,5.7,6,5.8,5.8,5.8c-0.2,0-0.5-0.1-0.6-0.4C5,5.2,4.9,4.9,4.9,4.4c0-0.6,0.3-1.2,0.8-1.7S7,2,7.9,2
			c1.2,0,2,0.3,2.6,1c0.4,0.5,0.6,1,0.6,1.7c0,0.4-0.1,0.8-0.3,1.3c-0.2,0.4-0.5,0.9-1,1.5C9,8.4,8.5,9.1,8.3,9.5
			C8.1,9.8,8,10.4,8,11z M7.8,12.1c0.3,0,0.5,0.1,0.7,0.3c0.2,0.2,0.3,0.4,0.3,0.7c0,0.3-0.1,0.5-0.3,0.7C8.3,13.9,8.1,14,7.8,14
			c-0.3,0-0.5-0.1-0.7-0.3C7,13.5,6.9,13.3,6.9,13c0-0.3,0.1-0.5,0.3-0.7C7.4,12.2,7.6,12.1,7.8,12.1z"/>
	</svg>

	<svg id="icon-category-separator" viewBox="0 0 16 16">
		<style type="text/css">
			.st0{fill:#333;}
		</style>
		<polygon class="st0" points="13,8 13,11 3,11 3,8 2,8 2,12 14,12 14,8 "/>
	</svg>

	<svg id="icon-category-symbol" viewBox="0 0 16 16">
		<style type="text/css">
			.st0{fill:#333;}
		</style>
		<path class="st0" d="M13,10.6l0.5-1.1H14L13.2,14H2v-0.9l3.9-4.6L2,4.7V2h11.4L14,5h-0.4l-0.2-0.5c-0.4-0.9-0.7-1-1.6-1H4l4.1,4.1l-3.5,4.1H11
			C12.3,11.7,12.7,11.2,13,10.6z"/>
	</svg>

	<svg id="icon-category-ligature" viewBox="0 0 16 16">
		<style type="text/css">
			.st0{fill:#333;}
		</style>
		<path class="st0" d="M11.4,12.1C11.4,12.1,11.4,12.1,11.4,12.1l0-5.4L9.8,6.7H6.6V6.5c0-1,0.1-2,0.2-2.4c0.1-0.3,0.3-0.5,0.5-0.7
			C7.6,3.1,7.9,3,8.2,3c0.2,0,0.4,0,0.5,0.1C8.9,3.2,9,3.4,9.2,3.6C9.7,4.3,9.9,4.5,10,4.5c0.2,0.1,0.4,0.2,0.6,0.2
			c0.2,0,0.4-0.1,0.6-0.3c0.2-0.2,0.3-0.4,0.3-0.6c0-0.3-0.1-0.6-0.3-0.8c-0.2-0.3-0.5-0.5-1-0.7C9.7,2.1,9.2,2,8.7,2
			c-0.8,0-1.4,0.2-2,0.5C6,2.9,5.6,3.4,5.3,4C5,4.6,5,5.7,5,6.7H3.4v0.9H5v4c0,0.9-0.3,1.1-0.4,1.3c-0.1,0.2-0.4,0.4-0.8,0.4H3.4V14
			h4.8v-0.7H8.1c-1.1,0-1.5-0.1-1.5-1.5c0,0,0,0,0,0l0-4.2h1.7c0.9,0,1.1,0,1.2,0.1c0.1,0,0.1,0.1,0.2,0.1c0,0,0.1,0.3,0.1,1v3.1
			c0,0.7-0.1,1-0.1,1.1c-0.1,0.2-0.3,0.3-0.7,0.3V14h3.7v-0.7C11.5,13.3,11.4,13.2,11.4,12.1L11.4,12.1z"/>
	</svg>

	<svg id="icon-language-latin" viewBox="0 0 16 16">
		<style type="text/css">
			.st0{fill:#333;}
		</style>
		<path class="st0" d="M12.2,2.1l0.3,3.6h-0.3c-0.3-0.9-0.7-1.6-1.1-2c-0.7-0.7-1.5-1-2.6-1C7,2.6,5.9,3.2,5.1,4.4c-0.6,1-0.9,2.1-0.9,3.5
			c0,1.1,0.2,2.1,0.6,3s1,1.6,1.6,2c0.7,0.4,1.4,0.6,2.1,0.6c0.4,0,0.8-0.1,1.2-0.2c0.4-0.1,0.8-0.3,1.1-0.5V9.5c0-0.6,0-0.9-0.1-1.1
			c-0.1-0.2-0.2-0.3-0.4-0.4c-0.2-0.1-0.5-0.1-1-0.1V7.5h4.4v0.3h-0.2c-0.4,0-0.7,0.1-0.9,0.4c-0.1,0.2-0.2,0.6-0.2,1.2v3.5
			c-0.6,0.3-1.3,0.6-1.9,0.8c-0.6,0.2-1.3,0.2-2.1,0.2c-2.2,0-3.9-0.7-5-2.1c-0.9-1.1-1.3-2.3-1.3-3.7c0-1,0.2-2,0.7-2.9
			c0.6-1.1,1.4-1.9,2.3-2.5c0.8-0.5,1.8-0.7,3-0.7c0.4,0,0.8,0,1.1,0.1c0.3,0.1,0.8,0.2,1.4,0.4c0.3,0.1,0.5,0.2,0.6,0.2
			s0.2,0,0.3-0.1c0.1-0.1,0.1-0.3,0.1-0.6H12.2z"/>
	</svg>

	<svg id="icon-language-cryllic" viewBox="0 0 16 16">
		<style type="text/css">
			.st0{fill:#333;}
		</style>
		<path class="st0" d="M2.1,13.6c0.7-0.1,1.2-0.2,1.6-0.5s0.9-0.8,1.5-1.6l2.5-3.4C6.6,7.9,5.8,7.6,5.3,7C4.9,6.5,4.6,5.8,4.6,5.1
			c0-0.7,0.2-1.3,0.6-1.8c0.4-0.5,0.9-0.8,1.5-1C7.4,2.1,8.3,2,9.6,2h4.3v0.3h-0.4c-0.5,0-0.8,0.1-1,0.4c-0.2,0.2-0.2,0.6-0.2,1.4
			v7.7c0,0.7,0.1,1.1,0.2,1.3c0.2,0.3,0.6,0.5,1.1,0.5h0.4V14H8.8v-0.3h0.5c0.4,0,0.8-0.1,1-0.4c0.2-0.2,0.2-0.6,0.2-1.4V8.4
			c-0.1,0-0.2,0-0.3,0s-0.2,0-0.2,0c-0.2,0-0.4,0-0.7,0l-4,5.6H2.1V13.6z M10.5,2.9c-0.6-0.1-1-0.2-1.4-0.2c-0.8,0-1.4,0.2-1.8,0.7
			C6.8,3.9,6.6,4.5,6.6,5.2c0,0.8,0.3,1.4,0.9,1.9C8.1,7.6,8.9,7.8,10,7.8c0.1,0,0.1,0,0.2,0s0.2,0,0.3,0V2.9z"/>
	</svg>

	<svg id="icon-language-greek" viewBox="0 0 16 16">
		<style type="text/css">
			.st0{fill:#333;}
		</style>
		<path class="st0" d="M10.3,12.5h3L14,11v3H9.5v-2.5c1.5-0.7,2.6-2.3,2.6-4.2c0-2.5-1.8-4.5-4.1-4.5c-2.3,0-4.1,2-4.1,4.5c0,1.9,1.1,3.6,2.6,4.2
			V14H2v-3l0.8,1.5h3v-0.4C3.5,11.3,2,9.5,2,7.2C2,4.3,4.7,2,8,2s6,2.4,6,5.3c0,2.2-1.6,4.1-3.8,4.9V12.5z"/>
	</svg>

	<svg id="icon-path-union" viewBox="0 0 17 17">
		<style type="text/css">
			.st0{opacity:0.4;fill:#333333;enable-background:new;}
			.st1{fill:#333333;}
		</style>
		<polygon class="st0" points="12.5,6.5 12.5,1.5 1.5,1.5 1.5,11.5 5.5,11.5 5.5,15.5 15.5,15.5 15.5,6.5 "/>
		<path class="st1" d="M16,16H5v-4H1V1h12v5h3V16z M15,15V7h-3V2H2v9h4l0,4H15z"/>
	</svg>

	<svg id="icon-path-subtract" viewBox="0 0 17 17">
		<style type="text/css">
			.st0{opacity:0.4;fill:#333333;enable-background:new;}
			.st1{fill:#333333;}
		</style>
		<polygon class="st0" points="4.5,6.5 12.5,6.5 12.5,1.5 1.4,1.5 1.4,11.5 4.5,11.5 "/>
		<path class="st1" d="M13,6V1H1l0,11l3,0v4l12,0V6H13z M2,11l0-9l10,0v4L4,6v5C4,11,2,11,2,11z M12,7v4l-7,0V7L12,7z M15,15L5,15v-3
			l8,0l0-5h2V15z"/>
	</svg>

	<svg id="icon-path-intersect" viewBox="0 0 17 17">
		<style type="text/css">
			.st0{opacity:0.4;fill:#333333;enable-background:new;}
			.st1{fill:#333333;}
		</style>
		<rect x="5.4" y="6.5" class="st0" width="7" height="5"/>
		<path class="st1" d="M13,6l0-5H1v11l4,0v4l11,0l0-10H13z M2,11V2h10l0,4L5,6l0,5C5,11,2,11,2,11z M12,7v4H6V7H12z M15,15l-9,0v-3h7
			V7l2,0V15z"/>
	</svg>

	<svg id="icon-align-top" viewBox="0 0 17 17">
		<rect x="1" y="2" fill="#333" width="15" height="1"/>
		<rect x="2" y="4" fill="#333" width="6" height="11"/>
		<rect x="10" y="4" fill="#333" width="5" height="8"/>
		<rect x="3" y="5" fill="#777" width="4" height="9"/>
	</svg>

	<svg id="icon-align-middle" viewBox="0 0 17 17">
		<rect x="1" y="8" fill="#333" width="15" height="1"/>
		<rect x="9" y="3" fill="#333" width="6" height="11"/>
		<rect x="2" y="5" fill="#333" width="5" height="7"/>
		<rect x="10" y="4" fill="#777" width="4" height="9"/>
	</svg>

	<svg id="icon-align-bottom" viewBox="0 0 17 17">
		<rect x="1" y="15" fill="#333" width="15" height="1"/>
		<rect x="2" y="3" fill="#333" width="6" height="11"/>
		<rect x="10" y="6" fill="#333" width="5" height="8"/>
		<rect x="3" y="4" fill="#777" width="4" height="9"/>
	</svg>

	<svg id="icon-vertical-centers" viewBox="0 0 17 17">
		<polygon fill="#333" points="15,3 13,3 13,1 12,1 12,3 10,3 10,14 12,14 12,16 13,16 13,14 15,14"/>
		<polygon fill="#333" points="5,1 4,1 4,5 2,5 2,13 4,13 4,16 5,16 5,13 7,13 7,5 5,5"/>
		<rect x="11" y="4" fill="#777" width="3" height="9"/>
	</svg>

	<svg id="icon-align-left" viewBox="0 0 17 17">
		<rect x="1" y="1" fill="#333" width="1" height="15"/>
		<rect x="3" y="10" fill="#333" width="8" height="5"/>
		<rect x="3" y="2" fill="#333" width="11" height="6"/>
		<rect x="4" y="3" fill="#777" width="9" height="4"/>
	</svg>

	<svg id="icon-align-center" viewBox="0 0 17 17">
		<polygon fill="#333" points="15,8 15,2 9,2 9,1 8,1 8,2 2,2 2,8 8,8 8,10 5,10 5,15 8,15 8,16 9,16 9,15 12,15 12,10 9,10 9,8"/>
		<rect x="3" y="3" fill="#777" width="11" height="4"/>
	</svg>

	<svg id="icon-align-right" viewBox="0 0 17 17">
		<rect x="15" y="1" fill="#333" width="1" height="15"/>
		<rect x="6" y="10" fill="#333" width="8" height="5"/>
		<rect x="3" y="2" fill="#333" width="11" height="6"/>
		<rect x="4" y="3" fill="#777" width="9" height="4"/>
	</svg>

	<svg id="icon-horizontal-centers" viewBox="0 0 17 17">
		<polygon fill="#333" points="15,4 15,2 2,2 2,4 1,4 1,5 2,5 2,7 15,7 15,5 16,5 16,4"/>
		<polygon fill="#333" points="13,10 4,10 4,12 1,12 1,13 4,13 4,15 13,15 13,13 16,13 16,12 13,12"/>
		<rect x="3" y="3" fill="#777" width="11" height="3"/>
	</svg>

	<svg id="icon-folder-open" viewBox="0 0 17 17">
		<path fill="#333" d="M16,9.5c0,0.2-0.1,0.4-0.2,0.5L13.1,13c-0.5,0.5-1.4,1-2.1,1H2.3c-0.3,0-0.7-0.1-0.7-0.4c0-0.2,0.1-0.4,0.2-0.5L4.5,10
			C5,9.4,5.9,9,6.6,9h8.7C15.6,9,16,9.1,16,9.5z M13.2,6.4V8H6.6c-1,0-2.2,0.6-2.9,1.3L1,12.4c0-0.1,0-0.1,0-0.2l0-7.7
			C1,3.5,1.3,3,2.3,3h3.5c1,0,1.4,0.3,1.4,1.3V5h4.7C12.8,5,13.2,5.4,13.2,6.4z"/>
	</svg>

	<svg id="icon-clipboard" viewBox="0 0 17 17">
		<path fill="#333" d="M14.6,2.9h-4.2c0-1-0.8-1.9-1.9-1.9S6.6,1.8,6.6,2.9H2.4c-0.3,0-0.5,0.2-0.5,0.5v12.2c0,0.3,0.2,0.5,0.5,0.5h12.2
			c0.3,0,0.5-0.2,0.5-0.5V3.3C15.1,3.1,14.9,2.9,14.6,2.9z M8.5,1.9c0.5,0,0.9,0.4,0.9,0.9S9,3.8,8.5,3.8S7.6,3.4,7.6,2.9
			S8,1.9,8.5,1.9z M14,15H3V4h1.7v1.5C4.7,5.8,5,6,5.2,6h6.6c0.3,0,0.5-0.2,0.5-0.5V4H14V15z"/>
		<path fill="#333" d="M7.6,13.6l-3-3.5l0.9-0.9l2.2,1.7l4-3.6l0.9,0.9L7.6,13.6z"/>
	</svg>

	<svg id="icon-minus" viewBox="0 0 17 17">
		<style type="text/css">
			.st0{fill:#333;}
		</style>
		<rect class="st0" x="3" y="8" width="11" height="1"/>
	</svg>

	<svg id="icon-plus" viewBox="0 0 17 17">
		<style type="text/css">
			.st0{fill:#333;}
		</style>
		<rect class="st0" x="3" y="8" width="11" height="1"/>
		<rect class="st0" x="8" y="3" width="1" height="11"/>
	</svg>

	<svg id="icon-fit" viewBox="0 0 17 17">
		<style type="text/css">
			.st0{fill:#333;}
		</style>
		<polygon class="st0" points="12.9,5.5 15,7.5 15,2 9.5,2 11.5,4.1 8.5,7.1 5.5,4.1 7.5,2 2,2 2,7.5 4.1,5.5 7.1,8.5 4.1,11.5 2,9.5 2,15 7.5,15 
			5.5,12.9 8.5,9.9 11.5,12.9 9.5,15 15,15 15,9.5 12.9,11.5 9.9,8.5"/>
	</svg>

	<svg id="icon-arrange-back" viewBox="0 0 19 19">
		<style type="text/css">
			.st0{fill:#9FAFBF;}
			.st1{fill:#55A6F6;}
		</style>
		<rect x="3" y="3" class="st0" width="9" height="9"/>
		<polygon class="st1" points="13,7 13,13 7,13 7,16 13,16 14,16 16,16 16,7 "/>
	</svg>

	<svg id="icon-arrange-front" viewBox="0 0 19 19">
		<style type="text/css">
			.st0{fill:#55A6F6;}
			.st1{fill:#9FAFBF;}
		</style>
		<rect x="3" y="3" class="st0" width="9" height="9"/>
		<polygon class="st1" points="13,7 13,13 7,13 7,16 13,16 14,16 16,16 16,7 "/>
	</svg>

	<svg id="icon-arrange-backward" viewBox="0 0 19 19">
		<style type="text/css">
			.st0{fill:#9FAFBF;}
			.st1{fill:#55A6F6;}
		</style>
		<rect x="3" y="3" class="st0" width="9" height="9"/>
		<polygon class="st1" points="13,7 13,13 7,13 7,16 13,16 14,16 16,16 16,7 "/>
		<path class="st1" d="M1.3,8.9c-0.5,1.2-0.2,5,3,4.4l-0.1-1.4l2.4,2l-2,2.4l-0.1-1.4C0.1,15.3-0.1,10.8,1.3,8.9z"/>
	</svg>

	<svg id="icon-arrange-forward" viewBox="0 0 19 19">
		<style type="text/css">
			.st0{fill:#55A6F6;}
			.st1{fill:#9FAFBF;}
		</style>
		<rect x="3" y="3" class="st0" width="9" height="9"/>
		<polygon class="st1" points="13,7 13,13 7,13 7,16 13,16 14,16 16,16 16,7 "/>
		<path class="st0" d="M16.9,9.6c0.7-1.1,1-4.9-2.2-4.8l-0.1,1.4l-2-2.3l2.3-2l-0.1,1.4C19.2,3.4,18.6,8,16.9,9.6"/>
	</svg>

	<svg id="icon-anchor-sym" viewBox="0 0 19 13">
		<style type="text/css">
			.st0{fill:none;stroke:#333;stroke-miterlimit:10;}
			.st1{fill:#bbb;stroke:#333;stroke-miterlimit:10;}
		</style>
		<line class="st0" x1="1.5" y1="1.5" x2="17.5" y2="11.5"/>
		<circle cx="1.5" cy="1.5" r="1.5"/>
		<circle cx="17.5" cy="11.5" r="1.5"/>
		<rect x="7.5" y="4.5" class="st1" width="4" height="4"/>
	</svg>

	<svg id="icon-anchor-flat" viewBox="0 0 19 13">
		<style type="text/css">
			.st0{fill:none;stroke:#333;stroke-miterlimit:10;}
			.st1{fill:#bbb;stroke:#333;stroke-miterlimit:10;}
		</style>
		<line class="st0" x1="1.5" y1="1.5" x2="17.5" y2="11.5"/>
		<circle cx="1.5" cy="1.5" r="1.5"/>
		<circle cx="17.5" cy="11.5" r="1.5"/>
		<rect x="10.4" y="6.3" class="st1" width="4" height="4"/>
	</svg>

	<svg id="icon-anchor-corner" viewBox="0 0 19 13">
		<style type="text/css">
			.st0{fill:none;stroke:#333;stroke-miterlimit:10;}
			.st1{fill:#bbb;stroke:#333;stroke-miterlimit:10;}
		</style>
		<line class="st0" x1="6.3" y1="11.5" x2="15.5" y2="6.5"/>
		<line class="st0" x1="3" y1="1.5" x2="15.5" y2="6.5"/>
		<circle cx="3" cy="1.5" r="1.5"/>
		<circle cx="6.3" cy="11.5" r="1.5"/>
		<rect x="13.5" y="4.5" class="st1" width="4" height="4"/>
	</svg>

	<svg id="cursor-n-rotate" viewBox="0 0 19 17" size="keep">
		<style type="text/css">
			.st0{fill:none;stroke:#fff;stroke-width:2;stroke-linejoin:round;stroke-miterlimit:10;}
			.st1{fill:#111;}
		</style>
		<path class="st0" d="M15.9,9.1l-1.8-1.8c-2.5-2.5-6.6-2.5-9.2,0L3.1,9.1L1.7,7.7L1,12.6l5-0.7l-1.4-1.4l1.8-1.8 c1.8-1.8,4.6-1.8,6.4,0l1.6,1.8L13,11.9l5,0.7l-0.7-4.9L15.9,9.1z"/>
		<path class="st1" d="M15.9,9.1l-1.8-1.8c-2.5-2.5-6.6-2.5-9.2,0L3.1,9.1L1.7,7.7L1,12.6l5-0.7l-1.4-1.4l1.8-1.8c1.8-1.8,4.6-1.8,6.4,0l1.6,1.8 L13,11.9l5,0.7l-0.7-4.9L15.9,9.1z"/>
	</svg>

	<svg id="sidebar-logo" viewBox="0 0 37 37">
		<style type="text/css">
			.st0{fill:url(#SVGID_1_);stroke:#fff;stroke-miterlimit:10;}
		</style>
		<linearGradient id="SVGID_1_" gradientUnits="userSpaceOnUse" x1="18.5" y1="795.2093" x2="18.5" y2="829.9891" gradientTransform="matrix(1 0 0 1 0 -794)">
			<stop  offset="0" style="stop-color:#bbb"/>
			<stop  offset="0.1888" style="stop-color:#aaa"/>
			<stop  offset="0.506" style="stop-color:#999"/>
			<stop  offset="0.7631" style="stop-color:#777"/>
			<stop  offset="1" style="stop-color:#808080"/>
		</linearGradient>
		<path class="st0" d="M7.3,35.2c-0.6-0.2-1.1-0.2-1.4-0.4c-0.2-0.1-0.3-0.1-0.3-0.2c-0.1,0.1-0.2,0.1-0.2,0.2l-0.2,0.2l-1.4-0.4
			l1.9-7.2l1.6,0.5v0.4c0,0.6,0.2,1,0.7,1.3c0.6,0.3,1,0.5,1.7,0.5c0.9,0,1.5-0.2,2.1-0.4c0.5-0.3,0.8-0.8,1-1.6l2.2-12.2h-5V11h5.8
			c0.2-1,0.3-2,0.6-3c0.3-1.2,0.8-2.3,1.4-3.4s1.5-1.8,2.5-2.5c1-0.6,2.3-1,3.8-1c1,0,2.1,0.1,2.9,0.2c0.9,0.2,1.6,0.3,2.2,0.5
			c0.6,0.2,1,0.3,1.4,0.5c0.2,0.1,0.3,0.2,0.5,0.2c0.1,0,0.1-0.1,0.2-0.1l0.2-0.2l1.6,0.3l-2.2,7.3l-1.5-0.4l-0.1-0.4
			c-0.1-0.8-0.3-1.2-0.9-1.5c-0.6-0.3-1.3-0.5-2-0.5c-0.6,0-1.1,0.1-1.4,0.3c-0.3,0.2-0.6,0.4-0.7,0.7c-0.2,0.3-0.3,0.9-0.4,1.5
			c-0.1,0.4-0.2,1-0.2,1.6h5.7V16h-6.6l-2.7,13.7C17.5,38.6,7.9,35.5,7.3,35.2z"/>
	</svg>


	<svg id="tmp-file-courier" viewBox="0 0 47 47">
		<style type="text/css">
			.st0{fill:#333;}
		</style>
		<path class="st0" d="M18.3,8.8h-4.8c-1.3,0-2.3-0.2-2.8-0.5c-0.5-0.4-0.8-1-0.8-1.8c0-0.9,0.2-1.5,0.7-1.9c0.5-0.3,1.8-0.5,3.9-0.5h9.3
		c1.2,0,2,0.2,2.4,0.5c0.4,0.3,0.8,0.9,1.2,1.8l12.8,32h0.6c1.2,0,2,0.2,2.4,0.5c0.4,0.3,0.7,0.9,0.7,1.8c0,0.9-0.2,1.5-0.6,1.9
		c-0.4,0.3-1.2,0.5-2.3,0.5H32c-1.7,0-2.7-0.2-3.2-0.5s-0.7-1-0.7-1.9c0-0.8,0.3-1.4,0.8-1.8c0.5-0.3,1.5-0.5,2.9-0.5h3l-3.2-7.8H15
		l-2.8,7.8h3.2c1.4,0,2.4,0.2,3,0.5s0.8,0.9,0.8,1.8c0,0.9-0.2,1.5-0.7,1.9s-1.5,0.5-3.1,0.5H6.6c-1.4,0-2.3-0.2-2.8-0.5
		s-0.7-1-0.7-1.9c0-0.9,0.2-1.4,0.7-1.8c0.5-0.3,1.3-0.5,2.7-0.5h0.6L18.3,8.8z M16.6,26.2H30L23,8.8L16.6,26.2z"/>
	</svg>

	<svg id="tmp-file-helvetica" viewBox="0 0 47 47">
		<style type="text/css">
			.st0{fill:#333;}
		</style>
		<path class="st0" d="M26.3,4L41.6,43h-5.7l-4.3-11.7H15.1L10.7,43H5.4L20.6,4H26.3z M29.9,26.9L23.4,8.7h-0.1l-6.6,18.2H29.9z"/>
	</svg>

	<svg id="tmp-file-comic-sans" viewBox="0 0 47 47">
		<style type="text/css">
			.st0{fill:#333;}
		</style>
		<path class="st0" d="M36.6,42.9c-1.6,0-3-2-4.1-6.1c-0.4-1.5-1-4.3-1.7-8.1c-1.8,0.2-4,0.7-6.9,1.3l-6.9,1.4c-0.9,2.3-2.3,5.5-4.4,9.9
		c-0.6,1-1.3,1.4-2.2,1.4c-0.7,0-1.3-0.2-1.8-0.7c-0.5-0.5-0.8-1.1-0.8-1.9c0-0.8,1.3-4,3.9-9.4c-0.3-0.4-0.4-1-0.4-1.5
		c0-1.4,0.8-2.3,2.5-2.7c2-3.7,4.4-7.9,7.4-12.7c4.1-6.5,6.6-9.8,7.6-9.8c1.4,0,2.3,0.9,2.8,2.8l1.6,8.7L37,33.5l1.5,4.1
		c0.5,1.4,0.7,2.3,0.7,2.8c0,0.7-0.3,1.4-0.8,1.9C37.9,42.7,37.3,42.9,36.6,42.9z M27.5,13.5l-7.4,11.9c2.1-0.5,5.2-1.2,9.5-1.9
		L27.5,13.5z"/>
	</svg>

	<svg id="tmp-file-times" viewBox="0 0 47 47">
		<style type="text/css">
			.st0{fill:#333;}
		</style>
		<path class="st0" d="M29.2,30.2H14.4l-2.6,6c-0.6,1.5-1,2.6-1,3.3c0,0.6,0.3,1.1,0.8,1.5c0.6,0.4,1.8,0.7,3.6,0.9v1h-12v-1
		c1.6-0.3,2.6-0.6,3.1-1.1c1-0.9,2-2.7,3.2-5.5L22.9,4h1l13.3,31.8c1.1,2.6,2,4.2,2.9,5c0.9,0.8,2.1,1.2,3.6,1.3v1H28.7v-1
		c1.5-0.1,2.5-0.3,3.1-0.8s0.8-1,0.8-1.6c0-0.8-0.4-2.1-1.1-3.9L29.2,30.2z M28.4,28.2l-6.5-15.4l-6.6,15.4H28.4z"/>
	</svg>

	
	<svg id="knob" viewBox="0 0 34 1734">
		<filter id="DS_1" x="-40%" y="-40%" width="180%" height="180%">
			<feDropShadow dx="0" dy="0" stdDeviation="1" flood-color="#2688f6" flood-opacity="1" />
		</filter>
		<style type="text/css">
			.st0{fill:none;stroke:#2688f6;stroke-width:2.5;stroke-linecap:round;filter:url(#DS_1);}
			.st1{fill:none;stroke:#a6a6a6;stroke-width:2.75;stroke-linecap:round;}
		</style>
		<path class="st0" d="M7.1,60.9c0.4,0.4,0.7,0.7,1.1,1"/>
		<path class="st0" d="M6.2,94c0.6,0.7,1.2,1.4,2,1.9"/>
		<path class="st0" d="M5.4,126.9c0.8,1.2,1.7,2.2,2.8,3"/>
		<path class="st0" d="M4.7,159.7c0.9,1.6,2.1,3.1,3.5,4.2"/>
		<path class="st0" d="M4.1,192.5c0.9,2.2,2.3,4,4.1,5.5"/>
		<path class="st0" d="M3.6,225.1c0.8,2.7,2.5,5.1,4.6,6.8"/>
		<path class="st0" d="M3.3,257.8c0.7,3.3,2.5,6.1,4.9,8.1"/>
		<path class="st0" d="M3.1,290.5c0.4,3.8,2.4,7.2,5.1,9.4"/>
		<path class="st0" d="M3,323c0,4.4,2.1,8.4,5.2,10.9"/>
		<path class="st0" d="M3.1,355.7c0,0.4-0.1,0.9-0.1,1.3c0,4.4,2.1,8.4,5.2,10.9"/>
		<path class="st0" d="M3.3,388.3C3.1,389.2,3,390.1,3,391c0,4.4,2.1,8.4,5.2,10.9"/>
		<path class="st0" d="M3.6,421c-0.4,1.3-0.6,2.6-0.6,4c0,4.4,2.1,8.4,5.2,10.9"/>
		<path class="st0" d="M4,453.7c-0.7,1.6-1,3.4-1,5.3c0,4.4,2.1,8.4,5.2,10.9"/>
		<path class="st0" d="M4.6,486.5c-1,2-1.6,4.2-1.6,6.5c0,4.4,2.1,8.4,5.2,10.9"/>
		<path class="st0" d="M5.3,519.3C3.9,521.5,3,524.2,3,527c0,4.4,2.1,8.4,5.2,10.9"/>
		<path class="st0" d="M6.3,552.2c-2,2.4-3.2,5.5-3.2,8.8c0,4.4,2.1,8.4,5.2,10.9"/>
		<path class="st0" d="M7.2,585.2c-2.5,2.5-4.1,6-4.1,9.9c0,4.4,2.1,8.4,5.2,10.9"/>
		<path class="st0" d="M8.3,618.2c-3.1,2.6-5.1,6.5-5.1,10.8c0,4.4,2.1,8.4,5.2,10.9"/>
		<path class="st0" d="M9.4,651.4c-3.7,2.5-6.2,6.8-6.2,11.6c0,4.4,2.1,8.4,5.2,10.9"/>
		<path class="st0" d="M10.5,684.7c-4.4,2.4-7.4,7-7.4,12.3c0,4.4,2.1,8.4,5.2,10.9"/>
		<path class="st0" d="M11.8,718.1c-5,2.1-8.6,7.1-8.6,12.9c0,4.4,2.1,8.4,5.2,10.9"/>
		<path class="st0" d="M13.1,751.6c-5.7,1.8-9.9,7.1-9.9,13.4c0,4.4,2.1,8.4,5.2,10.9"/>
		<path class="st0" d="M14.4,785.3c-6.4,1.3-11.2,7-11.2,13.7c0,4.4,2.1,8.4,5.2,10.9"/>
		<path class="st0" d="M15.8,819.1c-7.1,0.7-12.6,6.7-12.6,13.9c0,4.4,2.1,8.4,5.2,10.9"/>
		<path class="st0" d="M17.2,853C17.1,853,17.1,853,17.2,853c-7.7,0-14,6.3-14,14c0,4.4,2.1,8.4,5.2,10.9"/>
		<path class="st0" d="M18.5,887.1c-0.4,0-0.9-0.1-1.4-0.1c-7.7,0-14,6.3-14,14c0,4.4,2.1,8.4,5.2,10.9"/>
		<path class="st0" d="M19.9,921.3c-0.9-0.2-1.8-0.3-2.7-0.3c-7.7,0-14,6.3-14,14c0,4.4,2.1,8.4,5.2,10.9"/>
		<path class="st0" d="M21.2,955.6c-1.3-0.4-2.6-0.6-4.1-0.6c-7.7,0-14,6.3-14,14c0,4.4,2.1,8.4,5.2,10.9"/>
		<path class="st0" d="M22.5,990.1c-1.7-0.7-3.5-1.1-5.3-1.1c-7.7,0-14,6.3-14,14c0,4.4,2.1,8.4,5.2,10.9"/>
		<path class="st0" d="M23.8,1024.7c-2-1.1-4.3-1.7-6.7-1.7c-7.7,0-14,6.3-14,14c0,4.4,2.1,8.4,5.2,10.9"/>
		<path class="st0" d="M24.9,1059.4c-2.2-1.5-4.9-2.4-7.8-2.4c-7.7,0-14,6.3-14,14c0,4.4,2.1,8.4,5.2,10.9"/>
		<path class="st0" d="M25.9,1094.2c-2.4-2-5.5-3.2-8.9-3.2c-7.7,0-14,6.3-14,14c0,4.4,2.1,8.4,5.2,10.9"/>
		<path class="st0" d="M26.9,1129.1c-2.5-2.5-6-4.1-9.9-4.1c-7.7,0-14,6.3-14,14c0,4.4,2.1,8.4,5.2,10.9"/>
		<path class="st0" d="M27.8,1164.2c-2.6-3.1-6.5-5.1-10.8-5.1c-7.7,0-14,6.3-14,14c0,4.4,2.1,8.4,5.2,10.9"/>
		<path class="st0" d="M28.6,1199.2c-2.5-3.8-6.8-6.2-11.6-6.2c-7.7,0-14,6.3-14,14c0,4.4,2.1,8.4,5.2,10.9"/>
		<path class="st0" d="M29.3,1234.4c-2.4-4.4-7-7.4-12.3-7.4c-7.7,0-14,6.3-14,14c0,4.4,2.1,8.4,5.2,10.9"/>
		<path class="st0" d="M30.1,1269.7c-2.1-5.1-7.1-8.7-12.9-8.7c-7.7,0-14,6.3-14,14c0,4.4,2.1,8.4,5.2,10.9"/>
		<path class="st0" d="M30.6,1305c-1.7-5.7-7.1-10-13.4-10c-7.7,0-14,6.3-14,14c0,4.4,2.1,8.4,5.2,10.9"/>
		<path class="st0" d="M30.9,1340.3c-1.3-6.4-7-11.3-13.7-11.3c-7.7,0-14,6.3-14,14c0,4.4,2.1,8.4,5.2,10.9"/>
		<path class="st0" d="M31.1,1375.7c-0.7-7.1-6.7-12.7-13.9-12.7c-7.7,0-14,6.3-14,14c0,4.4,2.1,8.4,5.2,10.9"/>
		<path class="st0" d="M31.2,1411c0-7.7-6.3-14-14-14s-14,6.3-14,14c0,4.4,2.1,8.4,5.2,10.9"/>
		<path class="st0" d="M31.1,1446.4c0-0.5,0.1-0.9,0.1-1.4c0-7.7-6.3-14-14-14s-14,6.3-14,14c0,4.4,2.1,8.4,5.2,10.9"/>
		<path class="st0" d="M30.9,1481.8c0.2-0.9,0.3-1.8,0.3-2.8c0-7.7-6.3-14-14-14s-14,6.3-14,14c0,4.4,2.1,8.4,5.2,10.9"/>
		<path class="st0" d="M30.5,1517.1c0.4-1.3,0.6-2.7,0.6-4.1c0-7.7-6.3-14-14-14s-14,6.3-14,14c0,4.4,2.1,8.4,5.2,10.9"/>
		<path class="st0" d="M30.1,1552.4c0.7-1.7,1.1-3.5,1.1-5.4c0-7.7-6.3-14-14-14s-14,6.3-14,14c0,4.4,2.1,8.4,5.2,10.9"/>
		<path class="st0" d="M29.5,1587.7c1.1-2,1.7-4.3,1.7-6.6c0-7.7-6.3-14-14-14s-14,6.3-14,14c0,4.4,2.1,8.4,5.2,10.9"/>
		<path class="st0" d="M28.8,1622.8c1.5-2.2,2.4-4.9,2.4-7.8c0-7.7-6.3-14-14-14s-14,6.3-14,14c0,4.4,2.1,8.4,5.2,10.9"/>
		<path class="st0" d="M27.9,1657.9c2-2.4,3.2-5.6,3.2-8.9c0-7.7-6.3-14-14-14s-14,6.3-14,14c0,4.4,2.1,8.4,5.2,10.9"/>
		<path class="st0" d="M27,1693c2.5-2.5,4.1-6.1,4.1-10c0-7.7-6.3-14-14-14s-14,6.3-14,14c0,4.4,2.1,8.4,5.2,10.9"/>
		<path class="st0" d="M26,1727.9c3.1-2.5,5.2-6.5,5.2-10.9c0-7.7-6.3-14-14-14s-14,6.3-14,14c0,4.4,2.1,8.4,5.2,10.9"/>
		<path class="st1" d="M25.8,27.9C28.9,25.4,31,21.4,31,17c0-7.7-6.3-14-14-14S3,9.3,3,17c0,4.4,2.1,8.4,5.2,10.9L17,17"/>
		<path class="st1" d="M25.8,61.9c2.8-2.2,4.8-5.6,5.1-9.5c0.8-7.7-4.9-14.6-12.6-15.3S3.8,42,3.1,49.7C2.6,54,4.3,58.2,7.2,61L17,51" />
		<path class="st1" d="M25.8,95.9c2.4-2,4.3-4.8,4.9-8.2c1.5-7.6-3.4-15-11-16.5s-15,3.4-16.5,11c-0.9,4.3,0.4,8.6,3,11.7L17,85"/>
		<path class="st1" d="M25.8,129.9c2.1-1.7,3.8-4,4.6-6.8c2.2-7.4-2-15.2-9.3-17.5c-7.4-2.2-15.2,2-17.5,9.3 c-1.3,4.2-0.4,8.6,1.8,11.9L17,119"/>
		<path class="st1" d="M25.8,163.9c1.8-1.4,3.2-3.3,4.1-5.5c3-7.1-0.4-15.3-7.6-18.3S7,140.5,4.1,147.6c-1.7,4.1-1.3,8.6,0.6,12.1 L17,153"/>
		<path class="st1" d="M25.8,197.9c1.4-1.1,2.6-2.6,3.5-4.3c3.6-6.8,1.1-15.3-5.7-19s-15.3-1.1-19,5.7c-2.1,3.9-2.1,8.4-0.6,12.1 l13-5.4"/>
		<path class="st1" d="M25.8,231.9c1.1-0.9,2-1.9,2.8-3.1c4.3-6.4,2.6-15.1-3.8-19.4s-15.1-2.6-19.4,3.8c-2.5,3.7-2.9,8.1-1.8,11.9 L17,221"/>
		<path class="st1" d="M25.8,265.9c0.7-0.6,1.4-1.2,2-2c4.9-5.9,4-14.8-1.9-19.7s-14.8-4-19.7,1.9c-2.8,3.4-3.7,7.8-2.9,11.7L17,255" />
		<path class="st1" d="M25.8,299.9c0.4-0.3,0.7-0.6,1.1-1c5.5-5.4,5.5-14.3,0-19.8c-5.4-5.5-14.3-5.5-19.8,0 c-3.1,3.1-4.5,7.4-4.1,11.4l14-1.5"/>
		<path class="st1" d="M25.8,334l0.1-0.1c6-4.9,6.9-13.7,2-19.7s-13.7-6.9-19.7-2C4.7,315,3,319.1,3,323.1l14-0.1"/>
		<path class="st1" d="M25.7,367.9c5.5-4.5,6.9-12.6,2.9-18.6c-4.3-6.4-13-8.2-19.4-3.9c-3.7,2.4-5.8,6.4-6.2,10.4l14,1.2"/>
		<path class="st1" d="M25.8,401.9c5.1-4.1,6.8-11.5,3.6-17.5c-3.6-6.8-12.1-9.4-18.9-5.8c-3.9,2.1-6.4,5.8-7.2,9.7L17,391"/>
		<path class="st1" d="M25.8,435.9c4.7-3.8,6.6-10.4,4.2-16.2c-2.9-7.1-11.1-10.6-18.3-7.6c-4.1,1.7-7,5.1-8.1,8.9l13.4,4"/>
		<path class="st1" d="M25.8,469.9c4.3-3.5,6.3-9.3,4.6-14.9c-2.2-7.4-10.1-11.6-17.4-9.4c-4.2,1.3-7.4,4.4-8.9,8.1l13,5.3"/>
		<path class="st1" d="M25.8,503.9c3.9-3.2,6-8.3,5-13.6c-1.5-7.6-8.9-12.5-16.4-11.1c-4.3,0.8-7.8,3.7-9.7,7.2L17,493"/>
		<path class="st1" d="M25.8,537.9c3.5-2.9,5.6-7.4,5.2-12.2c-0.7-7.7-7.6-13.3-15.3-12.6c-4.4,0.4-8.2,2.9-10.4,6.2L17,527"/>
		<path class="st1" d="M25.9,571.9c3.2-2.6,5.2-6.5,5.2-10.8c0-7.7-6.2-14-13.9-14.1c-4.4,0-8.4,2.1-10.9,5.2l10.9,8.8"/>
		<path class="st1" d="M25.9,605.9c2.8-2.3,4.7-5.6,5.1-9.4c0.8-7.7-4.8-14.6-12.5-15.4c-4.4-0.5-8.6,1.2-11.4,4.1l9.9,9.9"/>
		<path class="st1" d="M25.9,639.9c2.5-2,4.3-4.8,4.9-8.1c1.5-7.5-3.4-15-10.9-16.5c-4.3-0.9-8.7,0.4-11.7,2.9l8.9,10.8"/>
		<path class="st1" d="M25.9,673.9c2.1-1.7,3.7-4,4.6-6.8c2.3-7.4-1.9-15.2-9.2-17.5c-4.2-1.3-8.6-0.5-11.9,1.8l7.8,11.6"/>
		<path class="st1" d="M25.9,707.9c1.8-1.4,3.2-3.3,4.1-5.5c3-7.1-0.4-15.3-7.5-18.3c-4.1-1.7-8.6-1.3-12.1,0.6L17,697"/>
		<path class="st1" d="M25.9,742c1.4-1.1,2.6-2.6,3.6-4.3c3.7-6.8,1.1-15.3-5.6-19c-3.9-2.1-8.4-2.2-12.1-0.6l5.4,12.9"/>
		<path class="st1" d="M25.9,775.9c1.1-0.9,2-1.9,2.8-3.1c4.3-6.4,2.6-15.1-3.8-19.4c-3.6-2.5-8.1-3-11.9-1.8l4.1,13.4"/>
		<path class="st1" d="M26,809.9c0.7-0.6,1.4-1.2,2-1.9c4.9-5.9,4.1-14.8-1.8-19.7c-3.4-2.8-7.8-3.8-11.7-3l2.8,13.7"/>
		<path class="st1" d="M25.9,843.9c0.4-0.3,0.7-0.6,1.1-1c5.5-5.4,5.5-14.3,0.1-19.8c-3.1-3.1-7.4-4.5-11.4-4.1l1.4,13.9"/>
		<path class="st1" d="M26,877.9c6-4.8,6.9-13.7,2.1-19.7c-2.8-3.4-6.9-5.2-10.9-5.2v14"/>
		<path class="st1" d="M26,911.9c5.5-4.5,6.9-12.5,2.9-18.6c-2.4-3.7-6.4-5.9-10.3-6.2L17.2,901"/>
		<path class="st1" d="M26,945.9c5.1-4.1,6.7-11.4,3.6-17.4c-2-3.9-5.8-6.5-9.7-7.2L17.2,935"/>
		<path class="st1" d="M26,979.9c4.7-3.8,6.5-10.3,4.2-16.2c-1.7-4.1-5.1-7-8.9-8.1L17.2,969"/>
		<path class="st1" d="M26,1013.9c4.3-3.5,6.3-9.3,4.6-14.9c-1.2-4.2-4.4-7.5-8.1-9l-5.4,12.9"/>
		<path class="st1" d="M26,1047.9c3.9-3.1,6-8.3,5-13.5c-0.8-4.3-3.6-7.9-7.2-9.7l-6.6,12.4"/>
		<path class="st1" d="M26,1081.9c3.5-2.8,5.6-7.3,5.2-12.1c-0.4-4.4-2.8-8.2-6.2-10.4l-7.8,11.6"/>
		<path class="st1" d="M25.8,1115.9c3.1-2.5,5.2-6.4,5.2-10.8s-2-8.4-5.1-10.9L17,1105"/>
		<path class="st1" d="M25.8,1149.9c2.8-2.3,4.7-5.6,5.1-9.4c0.5-4.4-1.2-8.6-4-11.4L17,1139"/>
		<path class="st1" d="M25.8,1183.9c2.5-2,4.3-4.8,5-8.1c0.9-4.3-0.3-8.7-2.9-11.7L17,1173"/>
		<path class="st1" d="M25.8,1217.9c2.1-1.7,3.7-4,4.6-6.7c1.3-4.2,0.5-8.6-1.7-12L17,1207"/>
		<path class="st1" d="M25.8,1251.9c1.7-1.4,3.2-3.2,4.1-5.4c1.7-4,1.4-8.6-0.5-12.1L17,1241"/>
		<path class="st1" d="M26,1285.9c1.4-1.1,2.6-2.5,3.5-4.2c2.1-3.9,2.2-8.4,0.7-12.1l-13,5.3"/>
		<path class="st1" d="M26,1319.9c1-0.8,2-1.8,2.8-3c2.5-3.6,3-8.1,1.9-11.9l-13.4,4"/>
		<path class="st1" d="M26,1353.9c0.7-0.6,1.3-1.2,1.9-1.9c2.8-3.4,3.8-7.8,3-11.7l-13.7,2.7"/>
		<path class="st1" d="M26,1387.9c0.3-0.3,0.7-0.6,1-0.9c3.1-3.1,4.5-7.4,4.1-11.3l-13.9,1.3"/>
		<path class="st1" d="M25.9,1421.9c3.4-2.8,5.2-6.9,5.2-10.9h-14"/>
		<path class="st1" d="M26,1455.9c3-2.4,4.8-5.9,5.1-9.5l-13.9-1.4"/>
		<path class="st1" d="M26,1489.9c2.6-2.1,4.3-5,4.9-8.1l-13.7-2.8"/>
		<path class="st1" d="M26,1523.9c2.2-1.8,3.8-4.2,4.6-6.8l-13.4-4.1"/>
		<path class="st1" d="M26,1557.9c1.8-1.5,3.3-3.4,4.1-5.5l-12.9-5.4"/>
		<path class="st1" d="M26,1591.9c1.5-1.2,2.7-2.6,3.5-4.2l-12.3-6.7"/>
		<path class="st1" d="M26,1625.9c1.1-0.9,2.1-1.9,2.8-3.1l-11.6-7.8"/>
		<path class="st1" d="M26,1659.9c0.7-0.6,1.4-1.2,2-2l-10.8-8.9"/>
		<path class="st1" d="M26,1693.9c0.4-0.3,0.7-0.6,1.1-0.9l-9.9-10"/>
		<path class="st1" d="M26,1727.9l-8.8-10.9"/>
	</svg>

	<svg id="pan-knob" viewBox="0 0 34 1734">
		<filter id="DS_1" x="-40%" y="-40%" width="180%" height="180%">
			<feDropShadow dx="0" dy="0" stdDeviation="1" flood-color="#2688f6" flood-opacity="1" />
		</filter>
		<style type="text/css">
			.st0{fill:none;stroke:#2688f6;stroke-width:2.5;stroke-linecap:round;filter:url(#DS_1);}
			.st1{fill:none;stroke:#a6a6a6;stroke-width:2.75;stroke-linecap:round;}
		</style>
		<path class="st0" d="M25.8,1727.9c3.1-2.5,5.2-6.5,5.2-10.9c0-7.7-6.3-14-14-14"/>
		<path class="st0" d="M17,275c-7.7,0-14,6.3-14,14c0,0.5,0,1,0.1,1.4"/>
		<path class="st0" d="M17,309c-7.7,0-14,6.3-14,14"/>
		<path class="st0" d="M17,343c-7.2,0-13.2,5.5-13.9,12.6"/>
		<path class="st0" d="M17,377c-6.8,0-12.5,4.9-13.7,11.3"/>
		<path class="st0" d="M17,411c-6.3,0-11.7,4.2-13.4,10"/>
		<path class="st0" d="M17,445c-5.8,0-10.8,3.6-12.9,8.7"/>
		<path class="st0" d="M25.8,469.9"/>
		<path class="st0" d="M17,479c-5.3,0-10,3-12.4,7.4"/>
		<path class="st0" d="M17,513c-4.8,0-9.1,2.5-11.6,6.3"/>
		<path class="st0" d="M17,3C9.3,3,3,9.3,3,17c0,4.4,2.1,8.4,5.2,10.9"/>
		<path class="st0" d="M17,37C9.3,37,3,43.3,3,51c0,3.8,1.6,7.4,4.1,9.9"/>
		<path class="st0" d="M17,71C9.3,71,3,77.3,3,85c0,3.4,1.2,6.5,3.2,8.9"/>
		<path class="st0" d="M17,105c-7.7,0-14,6.3-14,14c0,2.9,0.9,5.6,2.4,7.8"/>
		<path class="st0" d="M17,139c-7.7,0-14,6.3-14,14c0,2.4,0.6,4.7,1.7,6.7"/>
		<path class="st0" d="M17,173c-7.7,0-14,6.3-14,14c0,1.9,0.4,3.8,1.1,5.4"/>
		<path class="st0" d="M17,207c-7.7,0-14,6.3-14,14c0,1.4,0.2,2.8,0.6,4.1"/>
		<path class="st0" d="M17,241c-7.7,0-14,6.3-14,14c0,1,0.1,1.9,0.3,2.8"/>
		<path class="st0" d="M17,547c-4.4,0-8.3,2-10.8,5.2"/>
		<path class="st0" d="M17,581c-3.8,0-7.3,1.6-9.9,4.1"/>
		<path class="st0" d="M17,615c-3.4,0-6.5,1.2-8.9,3.2"/>
		<path class="st0" d="M17,649c-2.9,0-5.6,0.9-7.8,2.4"/>
		<path class="st0" d="M17,683c-2.4,0-4.6,0.6-6.6,1.7"/>
		<path class="st0" d="M17,717c-1.9,0-3.7,0.4-5.4,1.1"/>
		<path class="st0" d="M17,751c-1.4,0-2.8,0.2-4.1,0.6"/>
		<path class="st0" d="M17,785c-0.9,0-1.9,0.1-2.7,0.3"/>
		<path class="st0" d="M17,819"/>
		<path class="st0" d="M17,887"/>
		<path class="st0" d="M17,921"/>
		<path class="st0" d="M17,955"/>
		<path class="st0" d="M17,989"/>
		<path class="st0" d="M17,1023"/>
		<path class="st0" d="M17,1057"/>
		<path class="st0" d="M25.9,1094.2c-2.4-2-5.5-3.2-8.9-3.2"/>
		<path class="st0" d="M26.9,1129.2c-2.5-2.5-6-4.1-9.9-4.1"/>
		<path class="st0" d="M27.8,1164.2c-2.6-3.1-6.5-5.2-10.8-5.2"/>
		<path class="st0" d="M28.7,1199.3c-2.5-3.8-6.8-6.3-11.6-6.3"/>
		<path class="st0" d="M29.4,1234.4c-2.4-4.4-7-7.4-12.4-7.4"/>
		<path class="st0" d="M29.9,1269.7c-2.1-5.1-7.1-8.7-12.9-8.7"/>
		<path class="st0" d="M30.4,1305c-1.7-5.8-7.1-10-13.4-10"/>
		<path class="st0" d="M30.7,1340.4c-1.3-6.4-7-11.3-13.7-11.3"/>
		<path class="st0" d="M17,819c-0.5,0-0.9,0-1.4,0.1"/>
		<path class="st0" d="M18.4,887.1c-0.5,0-0.9-0.1-1.4-0.1"/>
		<path class="st0" d="M19.7,921.3c-0.9-0.2-1.8-0.3-2.7-0.3"/>
		<path class="st0" d="M21.1,955.6c-1.3-0.4-2.7-0.6-4.1-0.6"/>
		<path class="st0" d="M22.4,990.1c-1.7-0.7-3.5-1.1-5.4-1.1"/>
		<path class="st0" d="M23.6,1024.7c-2-1.1-4.2-1.7-6.6-1.7"/>
		<path class="st0" d="M24.8,1059.4c-2.2-1.5-4.9-2.4-7.8-2.4"/>
		<path class="st0" d="M30.9,1375.7c-0.7-7.1-6.7-12.7-13.9-12.7"/>
		<path class="st0" d="M31,1411c0-7.7-6.3-14-14-14"/>
		<path class="st0" d="M30.9,1446.4c0-0.5,0.1-1,0.1-1.4c0-7.7-6.3-14-14-14"/>
		<path class="st0" d="M30.7,1481.8c0.2-0.9,0.3-1.8,0.3-2.8c0-7.7-6.3-14-14-14"/>
		<path class="st0" d="M30.4,1517.1c0.4-1.3,0.6-2.7,0.6-4.1c0-7.7-6.3-14-14-14"/>
		<path class="st0" d="M29.9,1552.5c0.7-1.7,1.1-3.5,1.1-5.4c0-7.7-6.3-14-14-14"/>
		<path class="st0" d="M29.3,1587.7c1.1-2,1.7-4.3,1.7-6.7c0-7.7-6.3-14-14-14"/>
		<path class="st0" d="M28.6,1622.9c1.5-2.2,2.4-5,2.4-7.8c0-7.7-6.3-14-14-14"/>
		<path class="st0" d="M27.8,1658c2-2.4,3.2-5.6,3.2-8.9c0-7.7-6.3-14-14-14"/>
		<path class="st0" d="M26.8,1693c2.5-2.5,4.2-6.1,4.2-10c0-7.7-6.3-14-14-14"/>
		<path class="st1" d="M17,1703c-7.7,0-14,6.3-14,14c0,4.4,2.1,8.4,5.2,10.9"/>
		<path class="st1" d="M25.8,1727.9"/>
		<path class="st1" d="M8.2,27.9"/>
		<path class="st1" d="M25.8,27.9C28.9,25.4,31,21.4,31,17c0-7.7-6.3-14-14-14"/>
		<path class="st1" d="M8.2,61.9"/>
		<path class="st1" d="M25.8,61.9C28.9,59.4,31,55.4,31,51c0-7.7-6.3-14-14-14"/>
		<path class="st1" d="M8.2,95.9"/>
		<path class="st1" d="M25.8,95.9C28.9,93.4,31,89.4,31,85c0-7.7-6.3-14-14-14"/>
		<path class="st1" d="M8.2,129.9"/>
		<path class="st1" d="M25.8,129.9c3.1-2.5,5.2-6.5,5.2-10.9c0-7.7-6.3-14-14-14"/>
		<path class="st1" d="M8.2,163.9"/>
		<path class="st1" d="M25.8,163.9c3.1-2.5,5.2-6.5,5.2-10.9c0-7.7-6.3-14-14-14"/>
		<path class="st1" d="M8.2,197.9"/>
		<path class="st1" d="M25.8,197.9c3.1-2.5,5.2-6.5,5.2-10.9c0-7.7-6.3-14-14-14"/>
		<path class="st1" d="M8.2,231.9"/>
		<path class="st1" d="M25.8,231.9c3.1-2.5,5.2-6.5,5.2-10.9c0-7.7-6.3-14-14-14"/>
		<path class="st1" d="M8.2,265.9"/>
		<path class="st1" d="M25.8,265.9c3.1-2.5,5.2-6.5,5.2-10.9c0-7.7-6.3-14-14-14"/>
		<path class="st1" d="M25.8,299.9c3.1-2.5,5.2-6.5,5.2-10.9c0-7.7-6.3-14-14-14"/>
		<path class="st1" d="M25.8,333.9c3.1-2.5,5.2-6.5,5.2-10.9c0-7.7-6.3-14-14-14"/>
		<path class="st1" d="M25.8,367.9c3.1-2.5,5.2-6.5,5.2-10.9c0-7.7-6.3-14-14-14"/>
		<path class="st1" d="M25.8,401.9c3.1-2.5,5.2-6.5,5.2-10.9c0-7.7-6.3-14-14-14"/>
		<path class="st1" d="M25.8,435.9c3.1-2.5,5.2-6.5,5.2-10.9c0-7.7-6.3-14-14-14"/>
		<path class="st1" d="M25.8,469.9c3.1-2.5,5.2-6.5,5.2-10.9c0-7.7-6.3-14-14-14"/>
		<path class="st1" d="M25.8,503.9c3.1-2.5,5.2-6.5,5.2-10.9c0-7.7-6.3-14-14-14"/>
		<path class="st1" d="M25.8,537.9c3.1-2.5,5.2-6.5,5.2-10.9c0-7.7-6.3-14-14-14"/>
		<path class="st1" d="M25.8,571.9c3.1-2.5,5.2-6.5,5.2-10.9c0-7.7-6.3-14-14-14"/>
		<path class="st1" d="M25.8,605.9c3.1-2.5,5.2-6.5,5.2-10.9c0-7.7-6.3-14-14-14"/>
		<path class="st1" d="M25.8,639.9c3.1-2.5,5.2-6.5,5.2-10.9c0-7.7-6.3-14-14-14"/>
		<path class="st1" d="M25.8,673.9c3.1-2.5,5.2-6.5,5.2-10.9c0-7.7-6.3-14-14-14"/>
		<path class="st1" d="M25.8,707.9c3.1-2.5,5.2-6.5,5.2-10.9c0-7.7-6.3-14-14-14"/>
		<path class="st1" d="M25.8,741.9c3.1-2.5,5.2-6.5,5.2-10.9c0-7.7-6.3-14-14-14"/>
		<path class="st1" d="M25.8,775.9c3.1-2.5,5.2-6.5,5.2-10.9c0-7.7-6.3-14-14-14"/>
		<path class="st1" d="M25.8,809.9c3.1-2.5,5.2-6.5,5.2-10.9c0-7.7-6.3-14-14-14"/>
		<path class="st1" d="M25.8,843.9c3.1-2.5,5.2-6.5,5.2-10.9c0-7.7-6.3-14-14-14"/>
		<path class="st1" d="M25.8,877.9c3.1-2.5,5.2-6.5,5.2-10.9c0-7.7-6.3-14-14-14s-14,6.3-14,14c0,4.4,2.1,8.4,5.2,10.9"/>
		<path class="st1" d="M17,887c-7.7,0-14,6.3-14,14c0,4.4,2.1,8.4,5.2,10.9"/>
		<path class="st1" d="M17,921c-7.7,0-14,6.3-14,14c0,4.4,2.1,8.4,5.2,10.9"/>
		<path class="st1" d="M17,955c-7.7,0-14,6.3-14,14c0,4.4,2.1,8.4,5.2,10.9"/>
		<path class="st1" d="M17,989c-7.7,0-14,6.3-14,14c0,4.4,2.1,8.4,5.2,10.9"/>
		<path class="st1" d="M17,1023c-7.7,0-14,6.3-14,14c0,4.4,2.1,8.4,5.2,10.9"/>
		<path class="st1" d="M17,1057c-7.7,0-14,6.3-14,14c0,4.4,2.1,8.4,5.2,10.9"/>
		<path class="st1" d="M17,1091c-7.7,0-14,6.3-14,14c0,4.4,2.1,8.4,5.2,10.9"/>
		<path class="st1" d="M17,1125c-7.7,0-14,6.3-14,14c0,4.4,2.1,8.4,5.2,10.9"/>
		<path class="st1" d="M17,1159c-7.7,0-14,6.3-14,14c0,4.4,2.1,8.4,5.2,10.9"/>
		<path class="st1" d="M17,1193c-7.7,0-14,6.3-14,14c0,4.4,2.1,8.4,5.2,10.9"/>
		<path class="st1" d="M17,1227c-7.7,0-14,6.3-14,14c0,4.4,2.1,8.4,5.2,10.9"/>
		<path class="st1" d="M17,1261c-7.7,0-14,6.3-14,14c0,4.4,2.1,8.4,5.2,10.9"/>
		<path class="st1" d="M17,1295c-7.7,0-14,6.3-14,14c0,4.4,2.1,8.4,5.2,10.9"/>
		<path class="st1" d="M17,1329c-7.7,0-14,6.3-14,14c0,4.4,2.1,8.4,5.2,10.9"/>
		<path class="st1" d="M17,1363c-7.7,0-14,6.3-14,14c0,4.4,2.1,8.4,5.2,10.9"/>
		<path class="st1" d="M17,1397c-7.7,0-14,6.3-14,14c0,4.4,2.1,8.4,5.2,10.9"/>
		<path class="st1" d="M17,1431c-7.7,0-14,6.3-14,14c0,4.4,2.1,8.4,5.2,10.9"/>
		<path class="st1" d="M17,1465c-7.7,0-14,6.3-14,14c0,4.4,2.1,8.4,5.2,10.9"/>
		<path class="st1" d="M17,1499c-7.7,0-14,6.3-14,14c0,4.4,2.1,8.4,5.2,10.9"/>
		<path class="st1" d="M17,1533c-7.7,0-14,6.3-14,14c0,4.4,2.1,8.4,5.2,10.9"/>
		<path class="st1" d="M17,1567c-7.7,0-14,6.3-14,14c0,4.4,2.1,8.4,5.2,10.9"/>
		<path class="st1" d="M17,1601c-7.7,0-14,6.3-14,14c0,4.4,2.1,8.4,5.2,10.9"/>
		<path class="st1" d="M17,1635c-7.7,0-14,6.3-14,14c0,4.4,2.1,8.4,5.2,10.9"/>
		<path class="st1" d="M17,1669c-7.7,0-14,6.3-14,14c0,4.4,2.1,8.4,5.2,10.9"/>
		<line class="st1" x1="17" y1="1717" x2="25.8" y2="1727.9"/>
		<line class="st1" x1="17" y1="17" x2="8.2" y2="27.9"/>
		<path class="st1" d="M17,51l-9.9,9.9c0.4,0.4,0.7,0.7,1.1,1"/>
		<path class="st1" d="M17,85L6.2,93.9c0.6,0.7,1.3,1.4,2,2"/>
		<path class="st1" d="M17,119l-11.6,7.8c0.8,1.2,1.7,2.2,2.8,3.1"/>
		<path class="st1" d="M17,153l-12.3,6.7c0.9,1.7,2.1,3.1,3.5,4.2"/>
		<path class="st1" d="M17,187l-12.9,5.4c0.9,2.2,2.3,4.1,4.1,5.5"/>
		<path class="st1" d="M17,221l-13.4,4.1c0.8,2.7,2.5,5.1,4.6,6.8"/>
		<path class="st1" d="M17,255l-13.7,2.8c0.7,3.3,2.5,6.1,4.9,8.1"/>
		<path class="st1" d="M17,289l-13.9,1.4c0.4,3.8,2.4,7.2,5.1,9.5"/>
		<path class="st1" d="M17,323H3c0,4.4,2.1,8.4,5.2,10.9"/>
		<path class="st1" d="M17,357l-13.9-1.4C3,356,3,356.5,3,357c0,4.4,2.1,8.4,5.2,10.9"/>
		<path class="st1" d="M17,391l-13.7-2.8C3.1,389.1,3,390.1,3,391c0,4.4,2.1,8.4,5.2,10.9"/>
		<path class="st1" d="M17,425l-13.4-4c-0.4,1.3-0.6,2.6-0.6,4c0,4.4,2.1,8.4,5.2,10.9"/>
		<path class="st1" d="M17,459l-12.9-5.3C3.4,455.4,3,457.2,3,459c0,4.4,2.1,8.4,5.2,10.9"/>
		<path class="st1" d="M17,493l-12.4-6.6c-1,2-1.6,4.2-1.6,6.6c0,4.4,2.1,8.4,5.2,10.9"/>
		<path class="st1" d="M17,527l-11.6-7.7C3.9,521.5,3,524.2,3,527c0,4.4,2.1,8.4,5.2,10.9"/>
		<path class="st1" d="M17,561l-10.8-8.8c-2,2.4-3.2,5.5-3.2,8.8c0,4.4,2.1,8.4,5.2,10.9"/>
		<path class="st1" d="M17,595l-9.9-9.9c-2.5,2.5-4.1,6-4.1,9.9c0,4.4,2.1,8.4,5.2,10.9"/>
		<path class="st1" d="M17,629l-8.9-10.8C5,620.8,3,624.7,3,629c0,4.4,2.1,8.4,5.2,10.9"/>
		<path class="st1" d="M17,663l-7.8-11.6C5.5,653.9,3,658.2,3,663c0,4.4,2.1,8.4,5.2,10.9"/>
		<path class="st1" d="M17,697l-6.6-12.3C6,687,3,691.7,3,697c0,4.4,2.1,8.4,5.2,10.9"/>
		<path class="st1" d="M17,731l-5.4-12.9c-5,2.1-8.6,7.1-8.6,12.9c0,4.4,2.1,8.4,5.2,10.9"/>
		<path class="st1" d="M17,765l-4.1-13.4C7.2,753.4,3,758.7,3,765c0,4.4,2.1,8.4,5.2,10.9"/>
		<path class="st1" d="M17,799l-2.7-13.7C7.9,786.6,3,792.3,3,799c0,4.4,2.1,8.4,5.2,10.9"/>
		<path class="st1" d="M17,833l-1.4-13.9C8.6,819.8,3,825.8,3,833c0,4.4,2.1,8.4,5.2,10.9"/>
		<line class="st1" x1="17" y1="867" x2="17" y2="853"/>
		<path class="st1" d="M17,901l1.4-13.9c7.1,0.7,12.6,6.7,12.6,13.9c0,4.4-2.1,8.4-5.2,10.9"/>
		<path class="st1" d="M17,935l2.7-13.7c6.4,1.3,11.3,7,11.3,13.7c0,4.4-2.1,8.4-5.2,10.9"/>
		<path class="st1" d="M17,969l4.1-13.4c5.7,1.8,9.9,7.1,9.9,13.4c0,4.4-2.1,8.4-5.2,10.9"/>
		<path class="st1" d="M17,1003l5.4-12.9c5.1,2.1,8.6,7.1,8.6,12.9c0,4.4-2.1,8.4-5.2,10.9"/>
		<path class="st1" d="M17,1037l6.6-12.3c4.4,2.4,7.4,7,7.4,12.3c0,4.4-2.1,8.4-5.2,10.9"/>
		<path class="st1" d="M17,1071l7.8-11.6c3.7,2.5,6.2,6.8,6.2,11.6c0,4.4-2.1,8.4-5.2,10.9"/>
		<path class="st1" d="M17,1105l8.9-10.8c3.1,2.6,5.1,6.5,5.1,10.8c0,4.4-2.1,8.4-5.2,10.9"/>
		<path class="st1" d="M17,1139l9.9-9.9c2.5,2.5,4.1,6,4.1,9.9c0,4.4-2.1,8.4-5.2,10.9"/>
		<path class="st1" d="M17,1173l10.8-8.8c2,2.4,3.2,5.5,3.2,8.8c0,4.4-2.1,8.4-5.2,10.9"/>
		<path class="st1" d="M17,1207l11.6-7.7c1.5,2.2,2.4,4.9,2.4,7.7c0,4.4-2.1,8.4-5.2,10.9"/>
		<path class="st1" d="M17,1241l12.4-6.6c1,2,1.6,4.2,1.6,6.6c0,4.4-2.1,8.4-5.2,10.9"/>
		<path class="st1" d="M17,1275l12.9-5.3c0.7,1.6,1.1,3.4,1.1,5.3c0,4.4-2.1,8.4-5.2,10.9"/>
		<path class="st1" d="M17,1309l13.4-4c0.4,1.3,0.6,2.6,0.6,4c0,4.4-2.1,8.4-5.2,10.9"/>
		<path class="st1" d="M17,1343l13.7-2.7l0,0c0.2,0.9,0.3,1.8,0.3,2.7c0,4.4-2.1,8.4-5.2,10.9"/>
		<path class="st1" d="M17,1377l13.9-1.3l0,0c0,0.4,0.1,0.9,0.1,1.3c0,4.4-2.1,8.4-5.2,10.9"/>
		<path class="st1" d="M17,1411h14c0,4.4-2.1,8.4-5.2,10.9"/>
		<path class="st1" d="M17,1445l13.9,1.4c-0.4,3.8-2.4,7.2-5.1,9.5"/>
		<path class="st1" d="M17,1479l13.7,2.8c-0.7,3.3-2.5,6.1-4.9,8.1"/>
		<path class="st1" d="M17,1513l13.4,4.1c-0.8,2.7-2.5,5.1-4.6,6.8"/>
		<path class="st1" d="M17,1547l12.9,5.4c-0.9,2.2-2.3,4.1-4.1,5.5"/>
		<path class="st1" d="M17,1581l12.3,6.7c-0.9,1.7-2.1,3.1-3.5,4.2"/>
		<path class="st1" d="M17,1615l11.6,7.8c-0.8,1.2-1.7,2.2-2.8,3.1"/>
		<path class="st1" d="M17,1649l10.8,8.9l0,0c-0.6,0.7-1.3,1.4-2,2"/>
		<path class="st1" d="M17,1683l9.8,10l0,0c-0.3,0.3-0.7,0.6-1,0.9"/>
	</svg>
</svg>