<svg xmlns="http://www.w3.org/2000/svg" width="0" height="0">

	<svg id="icon-undo" viewBox="0 0 13 13">
		<style type="text/css">
			.st0{fill:#333;}
		</style>
		<path class="st0" d="M6.5,1.9C5,1.9,3.6,2.5,2.6,3.5L1,1.9V6h4.1L3.6,4.5c0.7-0.7,1.8-1.2,2.9-1.2c2.3,0,4.1,1.8,4.1,4.1c0,1.2-0.5,2.3-1.4,3.1 l0.9,1c1.1-1,1.9-2.5,1.9-4.1C12,4.3,9.5,1.9,6.5,1.9z"/>
	</svg>

	<svg id="icon-redo" viewBox="0 0 13 13">
		<style type="text/css">
			.st0{fill:#333;}
		</style>
		<path class="st0" d="M1,7.4c0,1.6,0.7,3.1,1.8,4.1l0.9-1C2.9,9.7,2.4,8.6,2.4,7.4c0-2.3,1.8-4.1,4.1-4.1c1.1,0,2.2,0.5,2.9,1.2L7.9,6H12V1.9 l-1.6,1.6c-1-1-2.4-1.6-3.9-1.6C3.5,1.9,1,4.4,1,7.4z"/>
	</svg>

	<svg id="icon-sidebar" viewBox="0 0 13 13">
		<style type="text/css">
			.st0{fill:#333;}
		</style>
		<path class="st0" d="M11,2H6H5H2H1v1v7v1h1h3h1h5h1v-1V3V2H11z M2,10V3h3v7H2z M11,10H6V3h5V10z"/>
		<rect x="3" y="4" class="st0" width="1" height="1"/>
		<rect x="3" y="6" class="st0" width="1" height="1"/>
	</svg>

	<svg id="icon-format" viewBox="0 0 13 13">
		<style type="text/css">
			.st0{fill:#333;}
		</style>
		<path class="st0" d="M5.8,8.9C6.7,9.3,7.1,10,8.2,8.9c-1-1-4.1-4.1-4.1-4.1c-0.8,0.8-0.6,1.4,0,2.3C4.7,7.9,3,8.8,2.7,9 C2.3,9.2,1,10,1,10.8C1,11.4,1.7,12,2.2,12c0.7-0.1,1.4-1,1.8-1.7C4.5,9.6,5.1,8.5,5.8,8.9z M1.9,11.1c-0.2-0.2-0.2-0.4,0-0.6 c0.2-0.2,0.4-0.2,0.6,0c0.2,0.2,0.2,0.4,0,0.6C2.3,11.3,2.1,11.3,1.9,11.1z"/>
		<path class="st0" d="M4.8,4c0.1-0.1,2.5-2.7,2.6-2.9C7.5,1,7.9,0.9,8.1,1.1c0.2,0.1,0.4,0.3,0.5,0.4s0,0.2,0,0.3 C8.5,1.8,6.8,3.9,6.8,3.9S9,2.2,9.1,2.2c0.1-0.1,0.4-0.1,0.5,0c0.1,0.1,2.3,2.8,2.3,3c0.1,0.2,0,0.6-0.2,0.7C11.6,6.1,9.1,8.2,9,8.3 c-0.1,0.1-0.3,0.2-0.5,0C8.3,8.1,4.9,4.7,4.8,4.6C4.7,4.4,4.7,4.2,4.8,4z"/>
	</svg>

	<svg id="icon-info" viewBox="0 0 18 18">
		<style type="text/css">
			.st0{fill:#333;}
		</style>
		<path class="st0" d="M7,2.5C7,1.7,7.7,1,8.5,1h1C10.3,1,11,1.7,11,2.5v1C11,4.4,10.3,5,9.5,5h-1C7.7,5,7,4.4,7,3.5V2.5z"/>
		<path class="st0" d="M13,17H5v-2h2V9H5V7h6v8h2V17z"/>
	</svg>

	<svg id="icon-category-all" viewBox="0 0 18 18">

	</svg>
	
	<svg id="icon-category-letter" viewBox="0 0 18 18">
		<style type="text/css">
			.st0{fill:#333;}
		</style>
		<path class="st0" d="M11,11.4H5.7l-0.9,2.2c-0.2,0.5-0.3,0.9-0.3,1.2c0,0.2,0.1,0.4,0.3,0.5C5,15.5,5.4,15.6,6,15.6V16H1.7v-0.4
			c0.6-0.1,0.9-0.2,1.1-0.4c0.3-0.3,0.7-1,1.1-2L8.8,2h0.4l4.8,11.4c0.4,0.9,0.7,1.5,1,1.8c0.3,0.3,0.7,0.4,1.3,0.5V16h-5.4v-0.4
			c0.5,0,0.9-0.1,1.1-0.3c0.2-0.2,0.3-0.3,0.3-0.6c0-0.3-0.1-0.8-0.4-1.4L11,11.4z M10.7,10.7L8.4,5.1L6,10.7H10.7z"/>
	</svg>
	
	<svg id="icon-category-number" viewBox="0 0 18 18">
		<style type="text/css">
			.st0{fill:#333;}
		</style>
		<path class="st0" d="M5,16v-0.4c0.9,0,1.7-0.2,2.4-0.6s1.4-1.1,2.1-2c0.7-1,1.2-2,1.4-3.2c-1,0.7-2,1-2.8,1c-0.9,0-1.7-0.4-2.4-1.1
			C5.1,9,4.8,8,4.8,6.8c0-1.2,0.3-2.2,1-3.1C6.6,2.6,7.7,2,9,2c1.1,0,2,0.5,2.8,1.4c1,1.1,1.4,2.5,1.4,4.2c0,1.5-0.4,2.9-1.1,4.2
			c-0.7,1.3-1.7,2.4-3,3.2c-1.1,0.7-2.2,1-3.5,1H5z M11.2,9.1c0.1-0.9,0.2-1.5,0.2-2.1c0-0.6-0.1-1.3-0.3-2.1
			c-0.2-0.7-0.5-1.3-0.9-1.7C9.7,2.9,9.2,2.7,8.7,2.7c-0.6,0-1.1,0.3-1.5,0.8C6.8,4,6.5,4.8,6.5,5.8c0,1.4,0.3,2.5,0.9,3.3
			c0.4,0.6,1,0.8,1.6,0.8c0.3,0,0.7-0.1,1.1-0.2C10.5,9.6,10.8,9.4,11.2,9.1z"/>
	</svg>
	
	<svg id="icon-category-punctuation" viewBox="0 0 18 18">

	</svg>
	
	<svg id="icon-category-separator" viewBox="0 0 18 18">

	</svg>
	
	<svg id="icon-category-symbol" viewBox="0 0 18 18">

	</svg>
	
	<svg id="icon-category-mark" viewBox="0 0 18 18">

	</svg>

</svg>