<svg xmlns="http://www.w3.org/2000/svg" width="0" height="0">

	<svg id="icon-undo" viewBox="0 0 13 13">
		<style type="text/css">
			.st0{fill:#333;}
		</style>
		<path class="st0" d="M6.5,1.9C5,1.9,3.6,2.5,2.6,3.5L1,1.9V6h4.1L3.6,4.5c0.7-0.7,1.8-1.2,2.9-1.2c2.3,0,4.1,1.8,4.1,4.1c0,1.2-0.5,2.3-1.4,3.1 l0.9,1c1.1-1,1.9-2.5,1.9-4.1C12,4.3,9.5,1.9,6.5,1.9z"/>
	</svg>

	<svg id="icon-redo" viewBox="0 0 13 13">
		<style type="text/css">
			.st0{fill:#333;}
		</style>
		<path class="st0" d="M1,7.4c0,1.6,0.7,3.1,1.8,4.1l0.9-1C2.9,9.7,2.4,8.6,2.4,7.4c0-2.3,1.8-4.1,4.1-4.1c1.1,0,2.2,0.5,2.9,1.2L7.9,6H12V1.9 l-1.6,1.6c-1-1-2.4-1.6-3.9-1.6C3.5,1.9,1,4.4,1,7.4z"/>
	</svg>

	<svg id="icon-sidebar" viewBox="0 0 13 13">
		<style type="text/css">
			.st0{fill:#333;}
		</style>
		<path class="st0" d="M11,2H6H5H2H1v1v7v1h1h3h1h5h1v-1V3V2H11z M2,10V3h3v7H2z M11,10H6V3h5V10z"/>
		<rect x="3" y="4" class="st0" width="1" height="1"/>
		<rect x="3" y="6" class="st0" width="1" height="1"/>
	</svg>

	<svg id="icon-format" viewBox="0 0 13 13">
		<style type="text/css">
			.st0{fill:#333;}
		</style>
		<path class="st0" d="M5.8,8.9C6.7,9.3,7.1,10,8.2,8.9c-1-1-4.1-4.1-4.1-4.1c-0.8,0.8-0.6,1.4,0,2.3C4.7,7.9,3,8.8,2.7,9 C2.3,9.2,1,10,1,10.8C1,11.4,1.7,12,2.2,12c0.7-0.1,1.4-1,1.8-1.7C4.5,9.6,5.1,8.5,5.8,8.9z M1.9,11.1c-0.2-0.2-0.2-0.4,0-0.6 c0.2-0.2,0.4-0.2,0.6,0c0.2,0.2,0.2,0.4,0,0.6C2.3,11.3,2.1,11.3,1.9,11.1z"/>
		<path class="st0" d="M4.8,4c0.1-0.1,2.5-2.7,2.6-2.9C7.5,1,7.9,0.9,8.1,1.1c0.2,0.1,0.4,0.3,0.5,0.4s0,0.2,0,0.3 C8.5,1.8,6.8,3.9,6.8,3.9S9,2.2,9.1,2.2c0.1-0.1,0.4-0.1,0.5,0c0.1,0.1,2.3,2.8,2.3,3c0.1,0.2,0,0.6-0.2,0.7C11.6,6.1,9.1,8.2,9,8.3 c-0.1,0.1-0.3,0.2-0.5,0C8.3,8.1,4.9,4.7,4.8,4.6C4.7,4.4,4.7,4.2,4.8,4z"/>
	</svg>

	<svg id="icon-info" viewBox="0 0 18 18">
		<style type="text/css">
			.st0{fill:#333;}
		</style>
		<path class="st0" d="M7,2.5C7,1.7,7.7,1,8.5,1h1C10.3,1,11,1.7,11,2.5v1C11,4.4,10.3,5,9.5,5h-1C7.7,5,7,4.4,7,3.5V2.5z"/>
		<path class="st0" d="M13,17H5v-2h2V9H5V7h6v8h2V17z"/>
	</svg>

	<svg id="icon-category-all" viewBox="0 0 16 16">
		<style type="text/css">
			.st0{fill:#333;}
		</style>
		<rect class="st0" x="3" y="3" width="3" height="3"/>
		<rect class="st0" x="7" y="3" width="3" height="3"/>
		<rect class="st0" x="11" y="3" width="3" height="3"/>
		<rect class="st0" x="3" y="7" width="3" height="3"/>
		<rect class="st0" x="7" y="7" width="3" height="3"/>
		<rect class="st0" x="11" y="7" width="3" height="3"/>
		<rect class="st0" x="3" y="11" width="3" height="3"/>
		<rect class="st0" x="7" y="11" width="3" height="3"/>
		<rect class="st0" x="11" y="11" width="3" height="3"/>
	</svg>

	<svg id="icon-category-letter" viewBox="0 0 16 16">
		<style type="text/css">
			.st0{fill:#333;}
		</style>
		<path class="st0" d="M9.7,10.1H5.2l-0.8,1.9c-0.2,0.4-0.3,0.8-0.3,1c0,0.2,0.1,0.3,0.3,0.4c0.2,0.2,0.5,0.3,1,0.3V14H1.8v-0.3
		c0.5-0.1,0.8-0.2,0.9-0.3c0.3-0.3,0.6-0.9,0.9-1.7L7.8,2h0.3l4.1,9.8c0.3,0.8,0.6,1.3,0.9,1.5c0.3,0.3,0.6,0.3,1.1,0.4V14H9.6v-0.3
		c0.4,0,0.8-0.1,0.9-0.3c0.2-0.2,0.3-0.3,0.3-0.5s-0.1-0.7-0.3-1.2L9.7,10.1z M9.5,9.5l-2-4.8L5.4,9.5H9.5z"/>
	</svg>

	<svg id="icon-category-number" viewBox="0 0 16 16">
		<style type="text/css">
			.st0{fill:#333;}
		</style>
		<path class="st0" d="M4.6,14v-0.3c0.8,0,1.5-0.2,2.1-0.5s1.2-0.9,1.8-1.7c0.6-0.9,1-1.7,1.2-2.8C8.8,9.3,7.9,9.5,7.2,9.5
		c-0.8,0-1.5-0.3-2.1-0.9C4.6,8,4.4,7.1,4.4,6.1s0.3-1.9,0.9-2.7C5.9,2.5,6.9,2,8,2c0.9,0,1.7,0.4,2.4,1.2c0.9,0.9,1.2,2.2,1.2,3.6
		c0,1.3-0.3,2.5-0.9,3.6c-0.6,1.1-1.5,2.1-2.6,2.8c-0.9,0.6-1.9,0.9-3,0.9C5.1,14,4.6,14,4.6,14z M9.9,8.1c0.1-0.8,0.2-1.3,0.2-1.8
		S10,5.2,9.8,4.5C9.6,3.9,9.4,3.4,9,3C8.6,2.8,8.2,2.6,7.7,2.6c-0.5,0-0.9,0.3-1.3,0.7s-0.6,1.1-0.6,2c0,1.2,0.3,2.2,0.8,2.8
		C7,8.6,7.5,8.8,8,8.8c0.3,0,0.6-0.1,0.9-0.2C9.3,8.5,9.5,8.3,9.9,8.1z"/>
	</svg>

	<svg id="icon-category-punctuation" viewBox="0 0 16 16">
		<style type="text/css">
			.st0{fill:#333;}
		</style>
		<path class="st0" d="M8,11H7.6c0-0.7,0.1-1.3,0.3-1.8C8,8.8,8.3,8.2,8.7,7.3c0.3-0.6,0.6-1.1,0.7-1.5s0.2-0.7,0.2-1c0-0.7-0.2-1.3-0.6-1.7
		C8.6,2.7,8.1,2.5,7.6,2.5c-0.5,0-0.9,0.1-1.2,0.3C6.1,3.1,6,3.3,6,3.6c0,0.2,0.1,0.5,0.3,0.8c0.2,0.3,0.3,0.5,0.3,0.7
		c0,0.2-0.1,0.4-0.2,0.5C6.2,5.7,6,5.8,5.8,5.8c-0.2,0-0.5-0.1-0.6-0.4C5,5.2,4.9,4.9,4.9,4.4c0-0.6,0.3-1.2,0.8-1.7S7,2,7.9,2
		c1.2,0,2,0.3,2.6,1c0.4,0.5,0.6,1,0.6,1.7c0,0.4-0.1,0.8-0.3,1.3c-0.2,0.4-0.5,0.9-1,1.5C9,8.4,8.5,9.1,8.3,9.5
		C8.1,9.8,8,10.4,8,11z M7.8,12.1c0.3,0,0.5,0.1,0.7,0.3c0.2,0.2,0.3,0.4,0.3,0.7c0,0.3-0.1,0.5-0.3,0.7C8.3,13.9,8.1,14,7.8,14
		c-0.3,0-0.5-0.1-0.7-0.3C7,13.5,6.9,13.3,6.9,13c0-0.3,0.1-0.5,0.3-0.7C7.4,12.2,7.6,12.1,7.8,12.1z"/>
	</svg>

	<svg id="icon-category-separator" viewBox="0 0 16 16">
		<style type="text/css">
			.st0{fill:#333;}
		</style>
		<polygon class="st0" points="13,8 13,11 3,11 3,8 2,8 2,12 14,12 14,8 "/>
	</svg>

	<svg id="icon-category-symbol" viewBox="0 0 16 16">
		<style type="text/css">
			.st0{fill:#333;}
		</style>
		<path class="st0" d="M13,10.6l0.5-1.1H14L13.2,14H2v-0.9l3.9-4.6L2,4.7V2h11.4L14,5h-0.4l-0.2-0.5c-0.4-0.9-0.7-1-1.6-1H4l4.1,4.1l-3.5,4.1H11
			C12.3,11.7,12.7,11.2,13,10.6z"/>
	</svg>

	<svg id="icon-category-ligature" viewBox="0 0 16 16">
		<style type="text/css">
			.st0{fill:#333;}
		</style>
		<path class="st0" d="M11.4,12.1C11.4,12.1,11.4,12.1,11.4,12.1l0-5.4L9.8,6.7H6.6V6.5c0-1,0.1-2,0.2-2.4c0.1-0.3,0.3-0.5,0.5-0.7
			C7.6,3.1,7.9,3,8.2,3c0.2,0,0.4,0,0.5,0.1C8.9,3.2,9,3.4,9.2,3.6C9.7,4.3,9.9,4.5,10,4.5c0.2,0.1,0.4,0.2,0.6,0.2
			c0.2,0,0.4-0.1,0.6-0.3c0.2-0.2,0.3-0.4,0.3-0.6c0-0.3-0.1-0.6-0.3-0.8c-0.2-0.3-0.5-0.5-1-0.7C9.7,2.1,9.2,2,8.7,2
			c-0.8,0-1.4,0.2-2,0.5C6,2.9,5.6,3.4,5.3,4C5,4.6,5,5.7,5,6.7H3.4v0.9H5v4c0,0.9-0.3,1.1-0.4,1.3c-0.1,0.2-0.4,0.4-0.8,0.4H3.4V14
			h4.8v-0.7H8.1c-1.1,0-1.5-0.1-1.5-1.5c0,0,0,0,0,0l0-4.2h1.7c0.9,0,1.1,0,1.2,0.1c0.1,0,0.1,0.1,0.2,0.1c0,0,0.1,0.3,0.1,1v3.1
			c0,0.7-0.1,1-0.1,1.1c-0.1,0.2-0.3,0.3-0.7,0.3V14h3.7v-0.7C11.5,13.3,11.4,13.2,11.4,12.1L11.4,12.1z"/>
	</svg>

	<svg id="icon-language-latin" viewBox="0 0 16 16">
		<style type="text/css">
			.st0{fill:#333;}
		</style>
		<path class="st0" d="M12.2,2.1l0.3,3.6h-0.3c-0.3-0.9-0.7-1.6-1.1-2c-0.7-0.7-1.5-1-2.6-1C7,2.6,5.9,3.2,5.1,4.4c-0.6,1-0.9,2.1-0.9,3.5
		c0,1.1,0.2,2.1,0.6,3s1,1.6,1.6,2c0.7,0.4,1.4,0.6,2.1,0.6c0.4,0,0.8-0.1,1.2-0.2c0.4-0.1,0.8-0.3,1.1-0.5V9.5c0-0.6,0-0.9-0.1-1.1
		c-0.1-0.2-0.2-0.3-0.4-0.4c-0.2-0.1-0.5-0.1-1-0.1V7.5h4.4v0.3h-0.2c-0.4,0-0.7,0.1-0.9,0.4c-0.1,0.2-0.2,0.6-0.2,1.2v3.5
		c-0.6,0.3-1.3,0.6-1.9,0.8c-0.6,0.2-1.3,0.2-2.1,0.2c-2.2,0-3.9-0.7-5-2.1c-0.9-1.1-1.3-2.3-1.3-3.7c0-1,0.2-2,0.7-2.9
		c0.6-1.1,1.4-1.9,2.3-2.5c0.8-0.5,1.8-0.7,3-0.7c0.4,0,0.8,0,1.1,0.1c0.3,0.1,0.8,0.2,1.4,0.4c0.3,0.1,0.5,0.2,0.6,0.2
		s0.2,0,0.3-0.1c0.1-0.1,0.1-0.3,0.1-0.6H12.2z"/>
	</svg>

	<svg id="icon-language-cryllic" viewBox="0 0 16 16">
		<style type="text/css">
			.st0{fill:#333;}
		</style>
		<path class="st0" d="M2.1,13.6c0.7-0.1,1.2-0.2,1.6-0.5s0.9-0.8,1.5-1.6l2.5-3.4C6.6,7.9,5.8,7.6,5.3,7C4.9,6.5,4.6,5.8,4.6,5.1
		c0-0.7,0.2-1.3,0.6-1.8c0.4-0.5,0.9-0.8,1.5-1C7.4,2.1,8.3,2,9.6,2h4.3v0.3h-0.4c-0.5,0-0.8,0.1-1,0.4c-0.2,0.2-0.2,0.6-0.2,1.4
		v7.7c0,0.7,0.1,1.1,0.2,1.3c0.2,0.3,0.6,0.5,1.1,0.5h0.4V14H8.8v-0.3h0.5c0.4,0,0.8-0.1,1-0.4c0.2-0.2,0.2-0.6,0.2-1.4V8.4
		c-0.1,0-0.2,0-0.3,0s-0.2,0-0.2,0c-0.2,0-0.4,0-0.7,0l-4,5.6H2.1V13.6z M10.5,2.9c-0.6-0.1-1-0.2-1.4-0.2c-0.8,0-1.4,0.2-1.8,0.7
		C6.8,3.9,6.6,4.5,6.6,5.2c0,0.8,0.3,1.4,0.9,1.9C8.1,7.6,8.9,7.8,10,7.8c0.1,0,0.1,0,0.2,0s0.2,0,0.3,0V2.9z"/>
	</svg>

	<svg id="icon-language-greek" viewBox="0 0 16 16">
		<style type="text/css">
			.st0{fill:#333;}
		</style>
		<path class="st0" d="M10.3,12.5h3L14,11v3H9.5v-2.5c1.5-0.7,2.6-2.3,2.6-4.2c0-2.5-1.8-4.5-4.1-4.5c-2.3,0-4.1,2-4.1,4.5c0,1.9,1.1,3.6,2.6,4.2
			V14H2v-3l0.8,1.5h3v-0.4C3.5,11.3,2,9.5,2,7.2C2,4.3,4.7,2,8,2s6,2.4,6,5.3c0,2.2-1.6,4.1-3.8,4.9V12.5z"/>
	</svg>
</svg>